<svg xmlns="http://www.w3.org/2000/svg" width="256" height="256" viewBox="0 0 682.667 682.667">
  <!-- Harf -->
  <path d="M168.422 500.826c-23.477-.144-41.602-1.179-54.375-3.125-22.227-3.47-38.06-10.137-47.5-20-8.477-7.637-12.709-18.054-12.709-31.25 0-5.137.482-12.5 1.459-22.084a406.941 406.941 0 013.958-28.75c.69-4.023 1.315-7.636 1.875-10.833.417-2.22.97-4.024 1.667-5.417.69-1.386 1.458-2.187 2.291-2.396.834-.208 1.628.352 2.396 1.667.762 1.322 1.491 3.58 2.188 6.77a114.35 114.35 0 002.291 10.834c2.22 9.03 8.262 15.768 18.125 20.209 25 10.696 63.19 16.25 114.584 16.666 21.25-.273 40.97-1.041 59.166-2.291 18.607-1.387 39.584-4.649 62.917-9.792 23.333-5.137 41.908-10.762 55.73-16.875 13.814-6.107 25.585-12.708 35.312-19.792 7.636-5.553 11.458-10.898 11.458-16.041 0-2.084-1.98-4.545-5.938-7.396-3.958-2.845-6.562-4.271-7.812-4.271-2.363 1.113-5.143 1.98-8.333 2.604-3.197.625-6.114.8-8.75.52-7.364-.832-12.852-3.124-16.459-6.874-3.613-3.75-5.416-8.815-5.416-15.208 0-4.024 5.345-16.667 16.041-37.917 4.304-8.607 8.086-14.616 11.354-18.02 3.262-3.4 7.741-5.105 13.438-5.105 9.023 0 17.396 4.863 25.104 14.583 7.708 9.727 11.563 22.155 11.563 37.292 0 15-2.019 27.988-6.042 38.958-5 15-11.81 28.893-20.417 41.667-10.833 15.417-22.708 27.604-35.625 36.562-12.916 8.959-25.976 16.081-39.166 21.355-11.81 5.833-27.051 11.289-45.73 16.354-18.684 5.071-41.354 9.205-68.02 12.396-26.394 3.196-49.935 4.856-70.625 5zM430.222 133.162c1.107 4.03 1.074 8.196-.104 12.5-1.185 4.31-3.373 8.821-6.563 13.541-1.946 3.197-3.997 6.081-6.146 8.646a114.073 114.073 0 01-6.77 7.396c-.697.833-1.81 1.875-3.334 3.125a60.28 60.28 0 01-4.791 3.542c-1.667 1.113-3.269 1.914-4.792 2.396-1.53.488-2.643.312-3.333-.521-5-4.024-9.935-8.125-14.792-12.292-4.863-4.167-10.208-8.053-16.042-11.667-.976-.69-1.426-1.354-1.354-1.979.065-.625.45-1.562 1.146-2.812l33.333-50.834c.97-1.386 1.94-2.044 2.917-1.979.97.072 2.012.456 3.125 1.146a102.942 102.942 0 018.75 5.625 70.208 70.208 0 018.125 6.77 47.58 47.58 0 016.562 7.918c1.875 2.851 3.23 6.009 4.063 9.479zM599.13 319.784a589.994 589.994 0 01-9.583 16.354 123.488 123.488 0 01-11.146 15.52 97.741 97.741 0 01-13.542 13.23c-4.935 3.958-10.52 7.122-16.77 9.48-5.144 2.083-9.519 4.413-13.126 6.978-3.613 2.572-6.601 5.313-8.958 8.23-3.613 3.893-6.738 9.27-9.375 16.145a2240.458 2240.458 0 00-8.23 21.771 307.032 307.032 0 01-9.374 22.396c-3.405 7.292-7.676 13.3-12.813 18.02-7.083 7.5-17.571 12.573-31.458 15.21l-38.125 6.458c-1.113.143-2.467.247-4.063.312-1.601.072-2.747.04-3.437-.104-3.19-.97-4.167-3.086-2.917-6.354 1.25-3.262 4.512-6.563 9.792-9.896 10.69-7.083 19.232-12.813 25.625-17.188a6164.29 6164.29 0 0015.625-10.729c4.023-2.773 7.253-5.065 9.687-6.875a271.19 271.19 0 007.813-6.041c11.25-8.47 19.023-17.357 23.333-26.667 2.5-4.857 4.792-9.583 6.875-14.167a305.502 305.502 0 016.563-13.541 226.164 226.164 0 017.396-13.23c2.636-4.375 5.69-8.782 9.166-13.229 3.607-4.44 8.47-8.782 14.584-13.02 6.106-4.232 13.47-8.438 22.083-12.605.97-.416 2.565-1.354 4.792-2.812 2.22-1.459 4.928-3.783 8.125-6.98 3.19-3.19 6.836-7.532 10.937-13.02 4.095-5.482 8.438-12.461 13.021-20.938-1.667-1.666-6.458-3.958-14.375-6.875-7.917-3.053-15.417-4.791-22.5-5.208-6.53-.417-11.914.768-16.146 3.542-4.238 2.78-8.092 6.738-11.562 11.875-3.477 5.143-6.459 7.5-8.959 7.083-.833-.417-.976-2.149-.416-5.208a51.587 51.587 0 012.916-8.959c5.274-12.083 11.25-21.041 17.917-26.875 6.803-5.97 14.928-8.958 24.375-8.958 6.803 0 15.345 1.667 25.625 5 6.387 2.226 11.875 3.333 16.458 3.333 9.584 0 19.095-3.398 28.542-10.208 2.083 0 2.812 1.354 2.187 4.062-.625 2.709-1.562 5.873-2.812 9.48-1.113 3.613-1.875 6.041-2.292 7.291-2.083 6.53-3.75 10.352-5 11.459-1.25.976-4.863 3.613-10.833 7.916a42.505 42.505 0 00-8.646 8.646c-2.435 3.268-4.896 7.122-7.396 11.563-2.5 4.446-5.696 10.56-9.583 18.333zm0 0"/>
  <!-- B -->
  <path d="M229.342 300.489c2.084-8.887 4.375-16.667 6.875-23.333 2.5-6.667 4.935-12.188 7.292-16.563 2.363-4.375 4.655-7.74 6.875-10.104 2.226-2.357 4.167-3.75 5.833-4.167v13.75c0 17.5 4.649 29.727 13.959 36.667 5.69 3.75 11.354 5 16.979 3.75s9.928-4.167 12.916-8.75c2.982-4.583 5.521-9.96 7.605-16.146 2.083-6.178 4.095-9.27 6.041-9.27 2.22 0 3.125 2.226 2.709 6.666-.144 7.5-2.468 19.688-6.98 36.563-4.518 16.875-10.625 30.729-18.333 41.562-7.708 10.833-17.05 16.53-28.02 17.083-11.25-.416-20-6.731-26.25-18.958-5.69-12.083-8.19-27.708-7.5-46.875zM286.783 583.04c1.107 4.023 1.075 8.19-.104 12.5-1.185 4.303-3.372 8.815-6.562 13.542-1.947 3.19-3.998 6.074-6.146 8.645a117.59 117.59 0 01-6.771 7.396c-.697.834-1.81 1.875-3.333 3.125a61.927 61.927 0 01-4.792 3.542c-1.667 1.107-3.268 1.907-4.792 2.396-1.53.481-2.643.312-3.333-.521-5-4.03-9.935-8.125-14.792-12.292-4.856-4.166-10.208-8.06-16.041-11.666-.97-.697-1.42-1.355-1.354-1.98.071-.625.455-1.562 1.145-2.812l33.334-50.833c.97-1.394 1.94-2.051 2.916-1.98.97.066 2.012.45 3.125 1.146a102.94 102.94 0 018.75 5.625 69.555 69.555 0 018.125 6.771 47.057 47.057 0 016.563 7.917c1.875 2.845 3.229 6.002 4.062 9.479z"/>
  <!-- uzz -->
  <path d="M205.592 196.114c-5.976 36.667-11.354 64.03-16.146 82.083-4.791 18.06-9.134 31.843-13.02 41.355-3.894 9.518-8.164 16.77-12.813 21.77-4.655 5-13.197 9.76-25.625 14.271-12.435 4.518-22.812 7.676-31.146 9.48-8.333 1.81-13.541 2.78-15.625 2.916-2.083-.137-3.405-.52-3.958-1.146-.56-.625-.072-2.116 1.458-4.479 2.637-3.75 8.158-8.887 16.563-15.417 8.398-6.523 18.333-14.648 29.791-24.375 11.459-9.72 20.033-18.294 25.73-25.729 5.69-7.428 10.729-17.565 15.104-30.416 4.375-12.846 8.646-26.283 12.812-40.313 4.167-14.023 7.188-23.542 9.063-28.542 1.875-5 3.782-7.428 5.729-7.291 2.22.416 2.917 2.363 2.083 5.833zm14.792-114.375c1.107 4.03 1.074 8.197-.104 12.5-1.185 4.31-3.373 8.822-6.563 13.542-1.946 3.196-3.997 6.08-6.146 8.646a114.072 114.072 0 01-6.77 7.395c-.697.834-1.81 1.875-3.334 3.125a60.279 60.279 0 01-4.791 3.542c-1.667 1.113-3.269 1.914-4.792 2.396-1.53.488-2.643.312-3.333-.521-5-4.023-9.935-8.125-14.792-12.292-4.863-4.166-10.208-8.053-16.042-11.666-.976-.69-1.426-1.354-1.354-1.98.065-.624.45-1.562 1.146-2.812l33.333-50.833c.97-1.387 1.94-2.045 2.917-1.98.97.072 2.012.456 3.125 1.146a102.945 102.945 0 018.75 5.625 70.208 70.208 0 018.125 6.771 47.58 47.58 0 016.562 7.917c1.875 2.851 3.23 6.009 4.063 9.479zm0 0M256.217 250.489c-1.113 13.893-4.238 25.697-9.375 35.417-5.143 9.726-10.976 14.583-17.5 14.583 0-5.273 1.7-21.667 5.104-49.167 3.399-27.5 5.97-47.187 7.709-59.062 1.731-11.875 3.71-24.48 5.937-37.813 2.22-13.333 4.375-24.095 6.459-32.291a574.618 574.618 0 017.604-20.625 683.688 683.688 0 018.437-20.625c1.94-3.054 3.19-2.565 3.75 1.458-3.476 23.06-6.666 46.98-9.583 71.77-2.917 24.793-4.896 42.54-5.938 53.23-1.041 10.697-1.562 16.947-1.562 18.75-.697 11.393-1.042 19.518-1.042 24.375zm0 0"/>
</svg>
