/* XPM */
static char *mupdf[] = {
/* columns rows colors chars-per-pixel */
"48 48 222 2 ",
"   c #FD4D07",
".  c #FD4E07",
"X  c #FD4F08",
"o  c #FC4F09",
"O  c #FE4F08",
"+  c #FD5009",
"@  c #FE5009",
"#  c #FD510A",
"$  c #FE500A",
"%  c #FE510A",
"&  c #FD530B",
"*  c #FD540B",
"=  c #FE550B",
"-  c #FD560C",
";  c #FD570D",
":  c #FE570C",
">  c #FE560D",
",  c #FD590E",
"<  c #FD5A0E",
"1  c #FD5A0F",
"2  c #FD5B0F",
"3  c #FE5A10",
"4  c #FE5B11",
"5  c #FD5C10",
"6  c #FD5D11",
"7  c #FD5E11",
"8  c #FD5F11",
"9  c #FD5E12",
"0  c #FF610F",
"q  c #FF6311",
"w  c #FD6012",
"e  c #FD6113",
"r  c #FF6513",
"t  c #FD6314",
"y  c #FD6315",
"u  c #FD6415",
"i  c #FD6515",
"p  c #FD6616",
"a  c #FD6717",
"s  c #FF6817",
"d  c #FD6918",
"f  c #FD6919",
"g  c #FD6A18",
"h  c #FD6B18",
"j  c #FD6A19",
"k  c #FD6B19",
"l  c #FD6D1A",
"z  c #FD6C1B",
"x  c #FD6E1B",
"c  c #FD701C",
"v  c #FC711C",
"b  c #FD701D",
"n  c #FD711D",
"m  c #FD721E",
"M  c #FD731E",
"N  c #FD741E",
"B  c #FD741F",
"V  c #FF6F20",
"C  c #FD7420",
"Z  c #FD7520",
"A  c #FD7720",
"S  c #FF7427",
"D  c #FD7820",
"F  c #FD7821",
"G  c #FD7A22",
"H  c #FD7B23",
"J  c #FF7C21",
"K  c #FD7C22",
"L  c #FD7D23",
"P  c #FF7D22",
"I  c #FF7D23",
"U  c #FF7E23",
"Y  c #FD7D24",
"T  c #FD7E24",
"R  c #FD7E25",
"E  c #FC7E26",
"W  c #FD8026",
"Q  c #FD8027",
"!  c #FD8127",
"~  c #FF8027",
"^  c #FD8227",
"/  c #FD8427",
"(  c #FF8129",
")  c #FD8428",
"_  c #FD8529",
"`  c #FE8529",
"'  c #FD8729",
"]  c #FD852A",
"[  c #FD872A",
"{  c #FD872B",
"}  c #FD872C",
"|  c #FD882B",
" . c #FD8A2C",
".. c #FC8B2C",
"X. c #FD8B2C",
"o. c #FD8B2D",
"O. c #FE8B2D",
"+. c #FD8E2D",
"@. c #FD8C2E",
"#. c #FD8D2E",
"$. c #FD8C2F",
"%. c #FD8D2F",
"&. c #FE8035",
"*. c #FD8B31",
"=. c #FE883E",
"-. c #FE8B42",
";. c #FE934C",
":. c #FE964F",
">. c #FC9156",
",. c #FE9852",
"<. c #FC965B",
"1. c #FD9B58",
"2. c #FF9E5A",
"3. c #FE9F5C",
"4. c #FEA15D",
"5. c #FEA360",
"6. c #FEA364",
"7. c #FDAA67",
"8. c #FFA76A",
"9. c #FEAA68",
"0. c #FDAE6E",
"q. c #FDA772",
"w. c #FEAB70",
"e. c #FFAF78",
"r. c #FDB677",
"t. c #FDB777",
"y. c #FFB17B",
"u. c #FEB67E",
"i. c #FEB77F",
"p. c #FDB879",
"a. c #FDBC7E",
"s. c #FEB784",
"d. c #FFB989",
"f. c #FFBA89",
"g. c #FEBE8F",
"h. c #FDC083",
"j. c #FDC387",
"k. c #FDC588",
"l. c #FDCD92",
"z. c #FFC298",
"x. c #FDD097",
"c. c #FCD59D",
"v. c #FECBA4",
"b. c #FCD9A0",
"n. c #FCDAA2",
"m. c #FCDEA7",
"M. c #FDDBAF",
"N. c #FECEB3",
"B. c #FECFB4",
"V. c #FED3B1",
"C. c #FED0B4",
"Z. c #FED0B5",
"A. c #FED1B5",
"S. c #FED2B6",
"D. c #FED3B6",
"F. c #FDDCB0",
"G. c #FDDFB4",
"H. c #FEDABE",
"J. c #FCE2AD",
"K. c #FCE3AE",
"L. c #FCE4AE",
"P. c #FCE5B0",
"I. c #FCE6B0",
"U. c #FCE7B2",
"Y. c #FDE0B4",
"T. c #FDE0B5",
"R. c #FDE1B5",
"E. c #FCE9B5",
"W. c #FCEAB6",
"Q. c #FDE2BA",
"!. c #FDE4B8",
"~. c #FDE5B8",
"^. c #FDE5BC",
"/. c #FCEBB9",
"(. c #FCEBBA",
"). c #FED6C0",
"_. c #FED7C0",
"`. c #FED8C1",
"'. c #FED9C1",
"]. c #FED9C2",
"[. c #FEDAC2",
"{. c #FEDBC3",
"}. c #FEDCC3",
"|. c #FEDCC4",
" X c #FEDDC4",
".X c #FEDEC4",
"XX c #FCEDC0",
"oX c #FCEDC1",
"OX c #FDECC5",
"+X c #FDEFC7",
"@X c #FDECC8",
"#X c #FDEFC8",
"$X c #FDF0CB",
"%X c #FDF1CD",
"&X c #FDF1CE",
"*X c #FDF0CF",
"=X c #FDF2D1",
"-X c #FDF4D8",
";X c #FEF5DD",
":X c #FEF7E3",
">X c #FFF0E6",
",X c #FEF9E9",
"<X c #FEF9EC",
"1X c #FEFAEC",
"2X c #FEFAED",
"3X c #FEFBF1",
"4X c #FEFBF2",
"5X c #FFFAF7",
"6X c #FFFCF5",
"7X c #FFFCF6",
"8X c #FFFDF7",
"9X c #FFFDF8",
"0X c #FFFCFB",
"qX c #FFFEFA",
"wX c #FFFDFC",
"eX c #FFFEFC",
"rX c #FFFEFD",
"tX c #FFFFFD",
"yX c #FFFEFE",
"uX c #FFFFFE",
"iX c white",
"pX c None",
/* pixels */
"pXpXpXpXpXpXpXpXpXpXpXpXpXpXpXpXpXpXpXpXpXpXpXpXpXpXpXpXpXpXpXpXpXpXpXpXpXpXpXpXpXpXpXpXpXpXpXpX",
"pXpXpXpXpXpXpXpXpX#.pXpXpXpXpXpXpXpXpXpXpXpXpXpXpXpXpXpXpXpXpXpXpXpXpXpXpXpXpXpXpXpXpX*.pXpXpXpX",
"pXpXpXpXpXpXpXpX#.#.#.*.pXpXpXpXpXpXpXpXpXpXpXpXpXpXpXpXpXpXpXpXpXpXpXpXpXpXpXpXpX#.#.#.*.pXpXpX",
"pXpXpXpXpXpXpXpXX.X.X.X.X.X.pXpXpXpXpXpXpXpXpXpXpXpXpXpXpXpXpXpXpXpXpXpXpXpXpXX.X.X.X.#.X.pXpXpX",
"pXpXpXpXpXpXpXpXpXX.X.X.X.X.X.X.X.X.X.X.X.X.| X.X.X.X.X.X.X.X.X.X.X.X.X.X.X.X.X.X.X.X.X.pXpXpXpX",
"pXpXpXpXpXpXpXpXpXX.} } } X.) | X.} | | X.) | | ) | | | | | X.) ) } X.} ) } } X.} } X.pXpXpXpXpX",
"pXpXpXpXpXpXpXpXpXpX) X.) X.| 9.u.s.u.i.s.u.i.s.s.i.i.i.s.u.*.) X.} X.) } ) } ) ) X.pXpXpXpXpXpX",
"pXpXpXpXpXpXpXpXpXpX) ) ) ) ) |.yXyXyXyXyXyXyXyXyXyXyXyXyXyX`.X.) ) ) X.) ) ) ) ) ) ) pXpXpXpXpX",
"pXpXpXpXpXpXpXpX/ ) ) ) ) ) ) |.yXyXyXyXyXyXyXyXyXyXyXyXyXyXyXV.) ) ) ) ) ) ) ) ) ) ) ) ) pXpXpX",
"pXpXpXpXpXpXpX) W ) ) W W ) ) |.yXyXyXyXyXyXyXyXyXyXyXyXyXyXyXyXv.) ) ) R ) ) E R ) ) R W ) pXpX",
"pXpXpXpXpXpX) W R ) W ) ) W W }.yXyXyX4X4X4X4X4X4X4X4X4X4XyXyXyXyXg.R ) ) ) E ) ) E ) ) ) W ) pX",
"pXpXpXpXpXW R W W W W R W W W }.yXyX4XW.W.W.W.W.W.W.W.W.W.2XyXyXyXyXs.R R R ) R ) R W W W R R ) ",
"pXpXpXpXpXR R R R R R R R R R }.yXyXyX6X6X6X9X6X6X6X9X6X6XyXyXyXyXyXyX0.R R R R R R R R R R R R ",
"pXpXpXpXpXpXpXpXR R pXpXK R R }.yXyXyXyXyXyXyXyXyXyXyXyXyXyXyXyXyXyXyXyX6.R K H R pXpXR K pXpXpX",
"pXpXpXpXpXpXpXpXpXpXpXpXH H H `.yXyXyXyXyXyX>XyXyXyXyXyXyXyX>XyXyXyXyXyX5X1.H H K pXpXpXpXpXpXpX",
"pXpXpXpXpXpXpXpXpXpXpXpXH H H `.yXyXyXyXyX2.K f.yXyXyXyXyXe.H 9.yXyXyXyXyXZ.H H H pXpXpXpXpXpXpX",
"pXpXpXpXpXpXpXpXpXpXpXpXB H H }.yXyX9X=XF.H K W %X=X=X=X@XK K K ^.=X9XyXyXD.H B B pXpXpXpXpXpXpX",
"pXpXpXpXpXpXpXpXpXpXpXpXB C B |.yXyX6X%XF.H K W %X%X%X%XOXR K K ^.%XyXyXyXZ.B H B pXpXpXpXpXpXpX",
"pXpXpXpXpXpXpXpXpXpXpXpXH B C `.yXyXyXyXyX9.R z.yXyXyXyXyXf.B p.yXyXyXyXyXD.C C H pXpXpXpXpXpXpX",
"pXpXpXpXpXpXpXpXpXpXpXpXB B C `.yXyXyXyXyXyX5XyXyXyXyXyXyXyX9XyXyXyXyXyXyXZ.C C B pXpXpXpXpXpXpX",
"pXpXpXpXpXpXpXpXpXpXpXpXC v C `.yXyXyXyXyXyXyXyXyXyXyXyXyXyXyXyXyXyXyXyXyXZ.C v B pXpXpXpXpXpXpX",
"pXpXpXpXpXpXpXpXpXpXpXv v v v `.yXyXyX9XyX9X9X9X9XyX9X9X9XyXyX9X9X9XyXyXyXZ.v v v pXpXpXpXpXpXpX",
"pXpXpXpXpXpXpXpXpXpXpXv v v v `.yXyX4XW.W.W.W.W./.W.W.W.W.W.W.W.W.W.6XyXyXZ.x v v pXpXpXpXpXpXpX",
"pXpXpXpXpXpXpXpXpXpXx x l l l `.yXyXyX2X2X1X1X1X2X2X1X1X1X1X1X2X2X2XyXyXyXZ.x x x pXpXpXpXpXpXpX",
"pXpXpXpXpXpXpXpXpXx x x x x l `.yXyXyXyXyXyXyXyXyXyXyXyXyXyXyXyXyXyXyXyXyXZ.x x x pXpXpXpXpXpXpX",
"pXpXpXpXpXpXpXpXd l d x d s d ).yXyXyXyXyXyXyXyXyXyX9XyXyXyXyXyXyXyXyXyXyXN.d x d pXpXpXpXpXpXpX",
"pXpXpXpXpXpXpXd d d d d d l d ).yX6X1X;X=X$XoX/.W.W.W.W.W./.oX+X%X-X:X2X9XB.d d x pXpXpXpXpXpXpX",
"pXpXpXpXpXpXd d d d d d d d d Q./.W.W.W.W.W.W.W.W.W.W.W.W.W.W.W.W.W.W.W.W.R.d d d pXpXpXpXpXpXpX",
"pXpXpXpXpXs s a a a a a d d u ~.W.W.W.L.r.j.W.W.W.W.W.W.W.W.W.h.p.U.W.W.W.R.a d u pXpXpXpXpXpXpX",
"pXpXpXpXs u a a s u a a u u s ~.W.W.W.&.0 0 7.W.W.W.W.W.W.W.4.0 0 =.W.W.W.R.u u d pXpXpXpXpXpXpX",
"pXpXpXu a a t a u u u u u u u ~.W.W.k.0 0 0 s U.W.W.W.W.W.J.r 0 0 0 l.W.W.R.u u u pXpXpXpXpXpXpX",
"pXpXpXe e e e e t t t t t u t ~.W.W.0.0 0 0 0 b.W.W.W.W.W.x.0 0 0 0 p.W.W.R.t t u pXpXpXpXpXpXpX",
"pXpXe e t e e e e e e e e e e ~.W.W.i.e 0 0 e L.W.W.W.W.W.m.e 0 0 0 k.W.W.T.e e e pXpXpXpXpXpXpX",
"pXpXe e pXt 6 e 6 e e e e 6 e ~.W.W.U.v 0 0 ;.W.W.W.W.W.W.W.-.0 0 S U.W.W.T.e 5 e pXpXpXpXpXpXpX",
"pX6 6 pXpX6 6 6 6 6 e 6 6 6 6 ~.W.W.W.c.:.4.U.W.W.W.W.W.W.W.J.3.,.b.W.W.W.T.t 5 6 pXpXpXpXpXpXpX",
"pX6 6 pXpX6 6 6 6 6 6 6 6 6 6 ~.W.W.W.W.W.W.W.W.W.W.W.W.W.W.W.W.W.W.W.W.W.G.5 5 6 pXpXpXpXpXpXpX",
"pX6 3 pXpX6 3 3 5 5 5 5 6 3 6 !.W.W.W.W.W.W.W.W.W.W./.W.W.W./.W.W.W.W.W.W.G.5 5 2 pXpXpXpXpXpXpX",
"3 2 2 pXpX2 2 2 1 1 1 3 3 2 2 <.q.q.q.q.q.q.q.q.q.w.q.q.q.q.q.q.q.w.q.q.q.>.1 1 pXpXpXpXpXpXpXpX",
"2 2 2 2 pX2 2 2 1 1 3 1 - 2 2 - 3 2 2 3 - 2 3 2 2 2 - - 2 2 - - - 2 - 3 3 3 1 1 pXpXpXpXpXpXpXpX",
"- - - - pX- - - - - - - - 2 - - - - - - - - - - - - - 2 - - - 2 - 3 - - - - - - pXpXpXpXpXpXpXpX",
"= - - pXpX- - - - - - - - - - - - - - - - - - - - - - - - - - 2 pXpXpXpXpXpXpXpXpXpXpXpXpXpXpXpX",
"pX- - pXpX- + = * * - - + - + - - - + - + - - & - & & - = - + + pXpXpXpXpXpXpXpXpXpXpXpXpXpXpXpX",
"pXpXpXpXpX& - = & & & + & - - & + pXpXpX- & & - & & & & + - = = pXpXpXpXpXpXpXpXpXpXpXpXpXpXpXpX",
"pXpXpXpXpX+ + + & + & o + + + pXpXpXpXpXpXpX+ + + + + & + + + + pXpXpXpXpXpXpXpXpXpXpXpXpXpXpXpX",
"pXpXpXpXpX+ + + + pXo + + + + pXpXpXpXpXpXpX+ + + + + pX+ + + + pXpXpXpXpXpXpXpXpXpXpXpXpXpXpXpX",
"pXpXpXpXpXo o   + pX  o o o pXpXpXpXpXpXpXpXo o o o o pXo o   + pXpXpXpXpXpXpXpXpXpXpXpXpXpXpXpX",
"pXpXpXpXpXpX    pXpXpX    o pXpXpXpXpXpXpXpXpX      pXpXpX    pXpXpXpXpXpXpXpXpXpXpXpXpXpXpXpXpX",
"pXpXpXpXpXpXpXpXpXpXpXpXpXpXpXpXpXpXpXpXpXpXpXpXpXpXpXpXpXpXpXpXpXpXpXpXpXpXpXpXpXpXpXpXpXpXpXpX"
};
