<?xml version="1.0" encoding="utf-8"?>
<!-- Generator: Adobe Illustrator 25.1.0, SVG Export Plug-In . SVG Version: 6.00 Build 0)  -->
<svg version="1.1" xmlns="http://www.w3.org/2000/svg" xmlns:xlink="http://www.w3.org/1999/xlink" x="0px" y="0px"
	 viewBox="0 0 396.865 373.591" style="enable-background:new 0 0 396.865 373.591;" xml:space="preserve">
<style type="text/css">
	.st0{fill-rule:evenodd;clip-rule:evenodd;fill:url(#SVGID_1_);}
	.st1{fill-rule:evenodd;clip-rule:evenodd;fill:#FFFFFF;}
	.st2{fill-rule:evenodd;clip-rule:evenodd;fill:#FCEAB6;}
	.st3{fill-rule:evenodd;clip-rule:evenodd;fill:#FF7C21;}
	.st4{fill-rule:evenodd;clip-rule:evenodd;fill:#FF610F;}
</style>
<g id="cow_body">
	<linearGradient id="SVGID_1_" gradientUnits="userSpaceOnUse" x1="198.4527" y1="373.6983" x2="198.4527" y2="-4.9814">
		<stop  offset="0" style="stop-color:#FD4D07"/>
		<stop  offset="1" style="stop-color:#FD8F2F"/>
	</linearGradient>
	<path class="st0" d="M280.6,20.8L280.6,20.8c1.4,0,2.7,0,4.1,0c27.2,0,49.2-3.6,68.9-18.3c9.9-7.3,24.2,2.5,15,18.9
		c-6,10.7-14.1,19.2-23.9,25.8c5.5,0.7,10.9,2.2,16.1,4.4C379.3,59.3,392,75,396.9,93c-16.3,9.1-36.4,10.8-54.9,3
		c-2.4-1-4.7-2.2-6.9-3.5c0,68,0,135.9,0,203.8c0,19.9-8,24.1-23.8,24.1c-15.6,0-31,0-46.5,0c0,14.8,0,29.7,0,44.6
		c0,4.8-3.9,8.6-8.6,8.6c-5.8,0-11.7,0-17.4,0c-2.4,0-4.5-0.9-6.1-2.5c-1.6-1.6-2.6-3.7-2.6-6.1c0-3.2,0-6.3,0-9.4
		c0-10.8-9.6-10.8-9.6,0c0,3.1,0,6.3,0,9.4c0,4.8-3.9,8.6-8.6,8.6c-5.8,0-11.7,0-17.4,0c-4.8,0-8.7-3.9-8.7-8.6
		c0-37.1-66.2-37.5-66.2,0c0,4.8-4,8.6-8.7,8.6c-5.8,0-11.6,0-17.4,0c-2.4,0-4.5-0.9-6.1-2.5c-1.6-1.6-2.6-3.7-2.6-6.1
		c0-3.2,0-6.3,0-9.4c0-10-9.6-10-9.6,0c0,3.1,0,6.3,0,9.4c0,4.8-4,8.6-8.7,8.6c-5.8,0-11.6,0-17.4,0c-4.8,0-8.7-3.9-8.7-8.6
		c0-38.2,0-68.8,0-106.8c-16.1,6.5-19.4,16.8-19.7,30.2c14.5,12.7,13.7,37.2-4.5,54.6C-4.2,325.5-3.8,299.3,9.1,289
		c1.6-65.4,82.9-87.7,93.3-148.2c0-11.4,0-22.8,0-34.2c0.1,0,0.1,0,0.2,0c0-4.8,0-9.4,0-14.2c-2.3,1.4-4.7,2.5-7.2,3.6
		c-18.4,7.8-38.5,6-54.8-3C45.5,75,58.3,59.3,76.7,51.6c5.3-2.2,10.7-3.7,16.1-4.4c-1.1-0.7-2.1-1.4-3.2-2.2h0.1
		c-8.4-6.3-15.4-14-20.7-23.5C59.8,5,74.1-4.9,84,2.5c19.9,14.8,44.6,18.3,68.8,18.3c1.4,0,2.7,0,4.1,0l0,0
		C198.1,20.8,239.4,20.8,280.6,20.8z"/>
</g>
<g id="page">
	<polygon class="st1" points="311.5,296.7 126.3,296.7 126.3,43.1 247.2,43.1 279.2,77.7 311.5,112.6"/>
</g>
<g id="nose">
	<g>
		<path class="st2" d="M311.5,296.7v-84.5c-26.7-4.5-60.8-9.4-92.7-9.4c-35,0-64,5.5-92.6,10.8v83.2H311.5z"/>
	</g>
</g>
<g id="lines">
	<rect x="155.6" y="169.7" class="st2" width="126.6" height="11"/>
	<rect x="155.6" y="123.7" class="st2" width="126.4" height="10.9"/>
	<rect x="155.6" y="77.7" class="st2" width="86.3" height="10.9"/>
</g>
<g id="eyes_and_nostrils">
	<ellipse class="st3" cx="252.5" cy="128.6" rx="13.7" ry="17.7"/>
	<ellipse class="st3" cx="185.2" cy="128.6" rx="13.7" ry="17.7"/>
	<ellipse class="st4" cx="172.4" cy="249.8" rx="19.2" ry="25.6"/>
	<ellipse class="st4" cx="265.4" cy="249.8" rx="19.2" ry="25.6"/>
</g>
</svg>
