<svg xmlns="http://www.w3.org/2000/svg" width="48" height="48">
<path d="M9.21 1.41c-.939.053-1.703 1.102-.868 2.598a9 9 0 0 0 2.504 2.842h-.014a7 7 0 0 0 .389.265 7.7 7.7 0 0 0-1.948.533c-2.226.931-3.775 2.83-4.367 5.006 1.971 1.09 4.403 1.308 6.63.364a7 7 0 0 0 .868-.436v1.719h-.023v4.137C11.123 25.755 1.29 28.45 1.098 36.36c-1.561 1.245-1.61 4.415.857 6.532 2.202-2.104 2.298-5.068.545-6.604.036-1.62.436-2.866 2.383-3.652v12.918a1.05 1.05 0 0 0 1.053 1.039h2.103a1.05 1.05 0 0 0 1.053-1.04v-1.136c0-1.21 1.162-1.21 1.162 0v1.137a1.03 1.03 0 0 0 .312.738c.194.193.449.3.739.3h2.103c.57 0 1.055-.458 1.055-1.038 0-4.536 8.006-4.487 8.006 0a1.05 1.05 0 0 0 1.052 1.039h2.104c.569 0 1.04-.46 1.04-1.04v-1.136c0-1.306 1.161-1.306 1.161 0v1.137a1.03 1.03 0 0 0 .315.738c.194.193.448.3.738.3h2.105c.568 0 1.04-.458 1.04-1.038v-5.397h5.624c1.911 0 2.877-.508 2.877-2.914V12.596a7 7 0 0 0 .836.422 7.56 7.56 0 0 0 6.641-.364c-.593-2.177-2.13-4.075-4.367-5.006a7.4 7.4 0 0 0-1.947-.533 9.1 9.1 0 0 0 2.89-3.12c1.113-1.984-.617-3.169-1.814-2.286-2.383 1.778-5.044 2.215-8.334 2.215H18.476c-2.926 0-5.913-.423-8.32-2.213a1.44 1.44 0 0 0-.945-.3m6.061 5.21h14.624l3.87 4.185 3.907 4.22v22.268h-22.4z" display="inline"/>
<ellipse cx="30.536" cy="16.961" rx="1.657" ry="2.141"/>
<ellipse cx="22.396" cy="16.961" rx="1.657" ry="2.141"/>
<ellipse cx="20.848" cy="31.62" rx="2.322" ry="3.096"/>
<ellipse cx="32.096" cy="31.62" rx="2.322" ry="3.096"/>
</svg>
