<?xml version="1.0" encoding="UTF-8" standalone="no"?>
<svg xmlns:svg="http://www.w3.org/2000/svg" version="1.1" width="200" height="200">
	<path
		fill="#ffffff"
		d="m 93.5,173.40625 c -1.138867,0.024 -2,0.88625 -2,2.09375 l 0,7.9375 c -1.7375,-0.15625 -3.47625,-0.34873 -5.21875,-0.59375 l 0,3.78125 c 1.7425,0.23625 3.48125,0.4425 5.21875,0.59375 l 0,13.96875 5,0 0,-13.65625 c 1.32375,0.0513 2.62625,0.0937 3.9375,0.0937 4.87,0 9.82625,-0.39125 14.78125,-1.09375 l 0,-3.78125 c -4.95625,0.72748 -9.91375,1.125 -14.78125,1.125 -1.31125,0 -2.61375,-0.0401 -3.9375,-0.0937 l 0,-7.375 c 0,-1.38 -1.12,-2.68499 -2.5,-2.9375 -0.1725,-0.0317 -0.337305,-0.0659 -0.5,-0.0625 z"
		/>
	<path
		fill="#4386b5"
		d="m 173.54976,82.763143 c 0,-40.6225 -32.9275,-73.55125 -73.55,-73.55125 -40.62375,0 -73.55,32.92875 -73.55,73.55125 0,40.623747 32.92625,73.552497 73.55,73.552497 40.6225,0 73.55,-32.92875 73.55,-73.552497"
		/>
	<path
		fill="#ffffff"
		d="m 88.07818,87.230068 0,51.621252 c -5.7675,-0.96875 -11.255,-2.595 -16.3575,-4.79 l 16.3575,-46.831252 z m 37.23375,-4.323749 c 0,-26.4925 3.8925,-31.53125 25.7075,-31.7 -0.4825,-0.72375 -1.00625,-1.4175 -1.51875,-2.11875 0.035,0.035 0.0725,0.0675 0.1075,0.1025 -0.1525,-0.210001 -0.31875,-0.4075 -0.47375,-0.615 -0.3625,-0.48625 -0.7325,-0.965001 -1.11,-1.440001 -0.44625,-0.5625 -0.905,-1.115 -1.37125,-1.661249 -0.34625,-0.406251 -0.69125,-0.81375 -1.04875,-1.21125 -0.5875,-0.652501 -1.195,-1.28625 -1.81,-1.91375 -0.26625,-0.27125 -0.5225,-0.55 -0.79375,-0.81625 -10.94125,-10.761251 -25.9375,-17.41 -42.4975,-17.41 -20.2,0 -38.07875,9.88125 -49.10375,25.06625 11.8,-11.94375 29.4125,-19.5325 49.10375,-19.5325 13.19,0 25.43625,3.4175 35.6375,9.256249 l -60.115,0 -26.89125,78.106252 c 0.7925,1.26375 1.6475,2.4525 2.53,3.605 -0.0863,-0.0863 -0.17875,-0.1675 -0.265,-0.255 11.025,15.18625 28.90375,25.06625 49.10375,25.06625 20.20125,0 38.08125,-9.88125 49.105,-25.0675 -6.52875,6.6075 -14.84125,11.87375 -24.29625,15.26875 l 0,-52.730001 z"
		/>
	<path
		fill="#231f20"
		d="m 100.44518,187.61282 c -1.31125,0 -2.63125,-0.035 -3.955,-0.0863 l 0,69.71001 c 0,1.38 -1.12,2.29375 -2.5,2.04125 -1.38125,-0.25375 -2.5,-1.57875 -2.5,-2.95875 l 0,-69.0975 c -1.7375,-0.15125 -3.47875,-0.35626 -5.22125,-0.59251 l 0,75.31875 c 0,0 4.82625,3.11626 14.235,3.11626 9.40875,0 14.72375,-3.20501 14.72375,-3.20501 l 0,-75.31875 c -4.955,0.7025 -9.9125,1.0725 -14.7825,1.0725 m -8.95512,-4.162 0,-7.95125 c 0,-1.38 1.12,-2.295 2.5,-2.04125 1.38,0.25251 2.5,1.57875 2.5,2.95875 l 0,7.35875 c 1.32375,0.0537 2.64375,0.0875 3.955,0.0875 4.8675,0 9.82625,-0.38877 14.7825,-1.11625 l 0,-15.41625 c -4.7825,0.84748 -9.6975,1.315 -14.72375,1.315 -4.855,0 -9.60625,-0.43627 -14.235,-1.22752 l 0,15.42 c 1.7425,0.24502 3.48375,0.45627 5.22125,0.61252 M 170.64938,82.763193 c 0,36.492497 -31.62875,66.071247 -70.65,66.071247 -39.02,0 -70.64875,-29.57875 -70.64875,-66.071247 0,-36.4925 31.62875,-66.07125 70.64875,-66.07125 39.02125,0 70.65,29.57875 70.65,66.07125 m -147.97125,0 c 0,42.707497 34.61625,77.321247 77.32125,77.321247 42.70625,0 77.3225,-34.61375 77.3225,-77.321247 0,-42.705 -34.61625,-77.31875 -77.3225,-77.31875 -42.705,0 -77.32125,34.61375 -77.32125,77.31875"
		/>
</svg>
