<?xml version="1.0" encoding="UTF-8" standalone="no"?>
<svg
   width="512"
   height="250"
   version="1.1"
   id="svg29"
   xml:space="preserve"
   sodipodi:docname="playstore-feature-editable.svg"
   inkscape:version="1.2.2 (b0a8486541, 2022-12-01)"
   xmlns:inkscape="http://www.inkscape.org/namespaces/inkscape"
   xmlns:sodipodi="http://sodipodi.sourceforge.net/DTD/sodipodi-0.dtd"
   xmlns="http://www.w3.org/2000/svg"
   xmlns:svg="http://www.w3.org/2000/svg"><sodipodi:namedview
     id="namedview397"
     pagecolor="#505050"
     bordercolor="#ffffff"
     borderopacity="1"
     inkscape:showpageshadow="0"
     inkscape:pageopacity="0"
     inkscape:pagecheckerboard="1"
     inkscape:deskcolor="#505050"
     showgrid="false"
     inkscape:zoom="2.546875"
     inkscape:cx="197.10429"
     inkscape:cy="125.05521"
     inkscape:window-width="1920"
     inkscape:window-height="980"
     inkscape:window-x="484"
     inkscape:window-y="354"
     inkscape:window-maximized="1"
     inkscape:current-layer="svg29" /><defs
     id="defs7"><rect
       x="268.05052"
       y="48.495982"
       width="413.53846"
       height="200.15614"
       id="rect314" /><linearGradient
       id="g"
       x1="198.453"
       x2="198.453"
       y1="373.698"
       y2="-4.9809999"
       gradientTransform="matrix(0.55182402,0,0,0.55182402,-0.01860514,1.4023816)"
       gradientUnits="userSpaceOnUse"><stop
         offset="0"
         stop-color="#fd4d07"
         id="stop2" /><stop
         offset="1"
         stop-color="#fd8f2f"
         id="stop4" /></linearGradient><rect
       x="184.93253"
       y="-14.134969"
       width="269.65128"
       height="281.24945"
       id="rect477" /></defs><rect
     style="fill:#ffffff;stroke-width:1.722;stroke-miterlimit:6.4;paint-order:markers stroke fill"
     id="rect611"
     width="512"
     height="250"
     x="0"
     y="0" /><g
     id="g436"
     transform="matrix(0.95890411,0,0,0.95890411,35.269809,20.778885)"><path
       fill="url(#g)"
       d="m 154.82518,12.881416 h 2.25839 c 15.01035,0 27.15093,-1.989212 38.02317,-10.1011852 5.46121,-4.028612 13.35418,1.3824116 8.27622,10.4296792 a 41.517971,41.517971 0 0 1 -13.18538,14.234733 33.761867,33.761867 0 0 1 8.88302,2.431767 c 10.20612,4.247608 17.21399,12.911633 19.9195,22.844009 a 34.491853,34.491853 0 0 1 -30.29443,1.656157 31.936901,31.936901 0 0 1 -3.80962,-1.929902 V 164.91019 c 0,10.97717 -4.41185,13.29488 -13.13063,13.29488 H 146.1064 v 24.61422 c 0,2.6462 -2.15346,4.74491 -4.74491,4.74491 h -9.60388 c -1.3231,0 -2.48195,-0.4973 -3.36706,-1.37785 a 4.6992869,4.6992869 0 0 1 -1.4326,-3.36706 v -5.18746 c 0,-5.95852 -5.30152,-5.95852 -5.30152,0 v 5.18746 c 0,2.6462 -2.1489,4.74491 -4.74492,4.74491 h -9.59932 a 4.7905352,4.7905352 0 0 1 -4.79966,-4.74491 c 0,-20.47155 -36.531248,-20.69511 -36.531248,0 0,2.6462 -2.208209,4.74491 -4.804222,4.74491 h -9.59932 c -1.3231,0 -2.481954,-0.4973 -3.367062,-1.37785 a 4.6992869,4.6992869 0 0 1 -1.432598,-3.36706 v -5.18746 c 0,-5.52053 -5.301526,-5.52053 -5.301526,0 v 5.18746 c 0,2.6462 -2.203646,4.74491 -4.79966,4.74491 h -9.59932 a 4.7905352,4.7905352 0 0 1 -4.804222,-4.74491 v -58.93727 c -8.883021,3.58606 -10.703424,9.27083 -10.867671,16.6665 7.997912,7.00787 7.55992,20.53087 -2.4865163,30.13019 C -2.3363117,181.02008 -2.1173158,166.56178 5.0046132,160.88158 5.8851591,124.79288 50.74738,112.48349 56.486898,79.100299 V 60.225591 h 0.109498 v -7.833666 a 31.936901,31.936901 0 0 1 -3.969301,1.984651 C 42.47116,58.683495 31.379931,57.688889 22.387412,52.720419 25.088361,42.788043 32.150979,34.124018 42.306914,29.87641 a 35.130591,35.130591 0 0 1 8.88302,-2.427204 31.936901,31.936901 0 0 1 -1.765654,-1.213603 h 0.05475 A 41.06173,41.06173 0 0 1 38.059306,13.264659 C 32.981338,4.1626424 40.869753,-1.3031301 46.335526,2.7847932 57.317257,10.951515 70.945189,12.885979 84.299376,12.885979 Z"
       id="path9"
       style="fill:url(#g);stroke-width:4.56241" /><path
       fill="#ffffff"
       d="m 136.39302,25.186248 17.65655,19.093704 17.82535,19.257952 V 165.12919 H 69.676838 V 25.186248 Z"
       id="path11"
       style="stroke-width:4.56241" /><path
       fill="#fceab6"
       d="m 171.87492,165.12919 v -46.62788 c -14.7366,-2.48652 -33.55199,-5.18746 -51.15379,-5.18746 -19.3127,0 -35.313087,3.034 -51.099041,5.95851 v 45.91157 H 171.87492 Z"
       id="path13"
       style="stroke-width:4.56241" /><path
       fill="#fceab6"
       d="m 85.846035,95.045938 h 69.859685 v 6.068012 H 85.846035 Z"
       id="path15"
       style="stroke-width:4.56241" /><path
       fill="#fceab6"
       d="m 85.846035,69.665226 h 69.750195 v 6.013263 H 85.846035 Z"
       id="path17"
       style="stroke-width:4.56241" /><path
       fill="#fceab6"
       d="m 85.846035,44.279952 h 47.622485 v 6.013263 H 85.846035 Z"
       id="path19"
       style="stroke-width:4.56241" /><ellipse
       fill="#ff7c21"
       cx="139.31754"
       cy="72.36618"
       rx="7.5599203"
       ry="9.7681293"
       id="ellipse21"
       style="stroke-width:4.56241" /><ellipse
       fill="#ff7c21"
       cx="102.17948"
       cy="72.36618"
       rx="7.5599203"
       ry="9.7681293"
       id="ellipse23"
       style="stroke-width:4.56241" /><ellipse
       fill="#ff610f"
       cx="95.116859"
       cy="139.24661"
       rx="10.593926"
       ry="14.125235"
       id="ellipse25"
       style="stroke-width:4.56241" /><ellipse
       fill="#ff610f"
       cx="146.43491"
       cy="139.24661"
       rx="10.593926"
       ry="14.125235"
       id="ellipse27"
       style="stroke-width:4.56241" /></g><text
     xml:space="preserve"
     id="text312"
     style="font-style:normal;font-weight:normal;font-size:42.6667px;line-height:57.929px;font-family:sans-serif;letter-spacing:-0.525808px;word-spacing:0px;white-space:pre;shape-inside:url(#rect314);display:inline;fill:#000000;fill-opacity:1;stroke:none;stroke-width:1px;stroke-linecap:butt;stroke-linejoin:miter;stroke-opacity:1"
     transform="matrix(0.66564226,0,0,0.66564226,74.49527,26.940945)"><tspan
       x="268.05078"
       y="93.673941"
       id="tspan666"><tspan
         style="font-weight:900;font-family:'Source Han Sans';-inkscape-font-specification:'Source Han Sans Heavy'"
         id="tspan664">Read PDF, XPS,
</tspan></tspan><tspan
       x="268.05078"
       y="155.66161"
       id="tspan670"><tspan
         style="font-weight:900;font-family:'Source Han Sans';-inkscape-font-specification:'Source Han Sans Heavy'"
         id="tspan668">CBZ, EPUB, and
</tspan></tspan><tspan
       x="268.05078"
       y="217.64928"
       id="tspan674"><tspan
         style="font-weight:900;font-family:'Source Han Sans';-inkscape-font-specification:'Source Han Sans Heavy'"
         id="tspan672">FB2 documents.</tspan></tspan></text><text
     xml:space="preserve"
     id="text475"
     style="font-style:italic;font-variant:normal;font-weight:normal;font-stretch:normal;font-size:37.3333px;line-height:48.0667px;font-family:C059;-inkscape-font-specification:'C059, Italic';font-variant-ligatures:normal;font-variant-caps:normal;font-variant-numeric:normal;font-variant-east-asian:normal;letter-spacing:-0.39px;word-spacing:0px;white-space:pre;shape-inside:url(#rect477);display:inline;fill:#000000;fill-opacity:1;stroke:none;stroke-width:1px;stroke-linecap:butt;stroke-linejoin:miter;stroke-opacity:1"
     transform="translate(62.421358,18.602068)"><tspan
       x="184.93164"
       y="18.746576"
       id="tspan676">PDF,
</tspan><tspan
       x="184.93164"
       y="66.813272"
       id="tspan678">  XPS,
</tspan><tspan
       x="184.93164"
       y="114.87997"
       id="tspan680">    CBZ,
</tspan><tspan
       x="184.93164"
       y="162.94666"
       id="tspan682">      FB2,
</tspan><tspan
       x="184.93164"
       y="211.01336"
       id="tspan684">        EPUB</tspan></text></svg>
