<svg xmlns="http://www.w3.org/2000/svg" xml:space="preserve" width="512" height="250"><defs><linearGradient id="a" x1="198.453" x2="198.453" y1="373.698" y2="-4.981" gradientTransform="matrix(.55182 0 0 .55182 -.019 1.402)" gradientUnits="userSpaceOnUse"><stop offset="0" stop-color="#fd4d07"/><stop offset="1" stop-color="#fd8f2f"/></linearGradient><path id="b" d="M268.051 48.496h413.538v200.156H268.051z"/></defs><path d="M0 0h512v250H0z" style="display:inline;fill:#fff;stroke-width:1.722;stroke-miterlimit:6.4;paint-order:markers stroke fill"/><g style="display:inline" transform="matrix(.9589 0 0 .9589 35.27 20.779)"><path fill="url(#a)" d="M154.825 12.881h2.259c15.01 0 27.15-1.989 38.023-10.1 5.46-4.03 13.354 1.382 8.276 10.429a41.5 41.5 0 0 1-13.185 14.235 33.8 33.8 0 0 1 8.883 2.431c10.206 4.248 17.214 12.912 19.92 22.844a34.5 34.5 0 0 1-30.295 1.657 32 32 0 0 1-3.81-1.93V164.91c0 10.977-4.412 13.295-13.13 13.295h-25.66v24.614a4.747 4.747 0 0 1-4.745 4.745h-9.603a4.68 4.68 0 0 1-3.367-1.378 4.7 4.7 0 0 1-1.433-3.367v-5.187c0-5.959-5.302-5.959-5.302 0v5.187a4.744 4.744 0 0 1-4.744 4.745h-9.6a4.79 4.79 0 0 1-4.8-4.745c0-20.471-36.53-20.695-36.53 0 0 2.646-2.209 4.745-4.805 4.745h-9.6a4.68 4.68 0 0 1-3.366-1.378 4.7 4.7 0 0 1-1.433-3.367v-5.187c0-5.52-5.301-5.52-5.301 0v5.187c0 2.646-2.204 4.745-4.8 4.745h-9.6a4.79 4.79 0 0 1-4.804-4.745v-58.937c-8.883 3.586-10.703 9.27-10.867 16.667 7.998 7.007 7.56 20.53-2.487 30.13-11.255-9.659-11.036-24.117-3.914-29.797.88-36.09 45.742-48.399 51.482-81.782V60.226h.11v-7.834a32 32 0 0 1-3.97 1.985c-10.156 4.306-21.247 3.312-30.24-1.657 2.701-9.932 9.764-18.596 19.92-22.844a35.1 35.1 0 0 1 8.883-2.427 32 32 0 0 1-1.766-1.213h.055a41.1 41.1 0 0 1-11.42-12.971c-5.078-9.102 2.81-14.568 8.277-10.48 10.981 8.167 24.61 10.101 37.963 10.101Z" style="fill:url(#a);stroke-width:4.56241"/><path fill="#fff" d="M136.393 25.186 154.05 44.28l17.825 19.258v101.591H69.677V25.186Z" style="stroke-width:4.56241"/><path fill="#fceab6" d="M171.875 165.13V118.5c-14.737-2.486-33.552-5.187-51.154-5.187-19.313 0-35.313 3.034-51.099 5.958v45.912h102.253ZM85.846 95.046h69.86v6.068h-69.86ZM85.846 69.665h69.75v6.013h-69.75ZM85.846 44.28h47.623v6.013H85.846Z" style="stroke-width:4.56241"/><ellipse cx="139.318" cy="72.366" fill="#ff7c21" rx="7.56" ry="9.768" style="stroke-width:4.56241"/><ellipse cx="102.179" cy="72.366" fill="#ff7c21" rx="7.56" ry="9.768" style="stroke-width:4.56241"/><ellipse cx="95.117" cy="139.247" fill="#ff610f" rx="10.594" ry="14.125" style="stroke-width:4.56241"/><ellipse cx="146.435" cy="139.247" fill="#ff610f" rx="10.594" ry="14.125" style="stroke-width:4.56241"/></g><g aria-label="Read PDF, XPS, CBZ, EPUB, and FB2 documents." style="font-size:42.6667px;line-height:57.929px;letter-spacing:-.525808px;word-spacing:0;white-space:pre;shape-inside:url(#b);display:inline;stroke-width:1px" transform="translate(74.495 26.94)scale(.66564)"><path d="M279.357 67.946h3.414c3.626 0 5.546.981 5.546 3.968s-1.92 4.565-5.546 4.565h-3.414zm18.048 25.728-7.082-12.587c3.285-1.536 5.461-4.522 5.461-9.173 0-7.68-5.632-9.984-12.416-9.984H271.72v31.744h7.637V82.495h3.67l5.845 11.179zM311.258 94.271c2.86 0 6.187-.981 8.704-2.773l-2.517-4.565c-1.75 1.024-3.37 1.536-5.12 1.536-3.072 0-5.376-1.366-6.059-4.694h14.251c.17-.554.341-1.92.341-3.242 0-6.656-3.413-11.734-10.41-11.734-5.888 0-11.52 4.864-11.52 12.758 0 8.02 5.376 12.714 12.33 12.714m-5.12-15.445c.512-2.901 2.347-4.224 4.438-4.224 2.773 0 3.84 1.792 3.84 4.224zM330.786 94.271c2.688 0 4.95-1.237 6.955-3.03h.17l.555 2.433h6.187V79.893c0-7.595-3.542-11.094-9.814-11.094-3.797 0-7.253 1.28-10.453 3.2l2.645 4.992c2.432-1.365 4.438-2.133 6.358-2.133 2.474 0 3.498 1.152 3.669 3.115-9.472 1.024-13.483 3.797-13.483 8.917 0 4.053 2.73 7.381 7.21 7.381m2.603-5.888c-1.58 0-2.603-.682-2.603-2.09 0-1.707 1.536-3.072 6.272-3.712v3.882c-1.11 1.195-2.133 1.92-3.67 1.92M358.676 94.271c2.304 0 4.65-1.237 6.358-2.944h.17l.555 2.347h6.187v-34.09h-7.638v8.106l.299 3.627c-1.579-1.536-3.157-2.518-5.845-2.518-5.035 0-10.027 4.779-10.027 12.758 0 7.893 3.883 12.714 9.941 12.714m2.006-6.23c-2.603 0-4.14-1.962-4.14-6.612 0-4.48 1.92-6.443 4.012-6.443 1.28 0 2.602.384 3.754 1.45v9.558c-1.024 1.579-2.176 2.048-3.626 2.048M387.363 93.674h7.638V83.135h3.712c6.698 0 12.544-3.328 12.544-10.88 0-7.85-5.76-10.325-12.758-10.325h-11.136Zm7.638-16.555v-9.173h3.114c3.67 0 5.718 1.11 5.718 4.31 0 3.114-1.792 4.863-5.504 4.863zM416.15 93.674h9.557c9.259 0 15.659-4.992 15.659-16.043s-6.4-15.701-16.086-15.701h-9.13zm7.637-6.144V67.989h1.024c5.12 0 8.747 2.09 8.747 9.642s-3.627 9.899-8.747 9.899zM446.728 93.674h7.637V81.557h10.837v-6.358h-10.837v-6.954h12.63V61.93h-20.267zM471.546 93.375c0 2.39-1.963 4.65-5.632 5.93l1.536 4.054c5.888-1.792 9.088-5.93 9.088-11.434 0-4.438-1.835-7.083-5.163-7.083-2.645 0-4.736 1.707-4.736 4.267 0 2.73 2.176 4.266 4.523 4.266zM487.86 93.674h8.15l2.73-6.187a147 147 0 0 0 2.176-5.29h.17a259 259 0 0 0 2.347 5.29l2.944 6.187h8.49l-8.746-16 8.192-15.744h-8.064l-2.304 5.675a84 84 0 0 0-2.048 5.205h-.17c-.897-2.048-1.622-3.712-2.305-5.205l-2.56-5.675h-8.49l8.234 15.403zM518.523 93.674h7.638V83.135h3.712c6.698 0 12.544-3.328 12.544-10.88 0-7.85-5.76-10.325-12.758-10.325h-11.136zm7.638-16.555v-9.173h3.114c3.67 0 5.718 1.11 5.718 4.31 0 3.114-1.792 4.863-5.504 4.863zM556.654 94.271c7.68 0 12.117-4.65 12.117-9.941 0-4.48-2.347-7.125-6.272-8.704l-3.968-1.579c-2.816-1.11-4.821-1.792-4.821-3.541 0-1.707 1.45-2.645 3.797-2.645 2.475 0 4.437.853 6.528 2.432l3.797-4.78c-2.773-2.772-6.656-4.18-10.325-4.18-6.741 0-11.52 4.266-11.52 9.6 0 4.608 3.115 7.38 6.443 8.704l4.053 1.706c2.73 1.152 4.48 1.75 4.48 3.584 0 1.707-1.323 2.774-4.139 2.774-2.517 0-5.461-1.323-7.722-3.243l-4.31 5.248c3.286 3.03 7.723 4.565 11.862 4.565M577.76 93.375c0 2.39-1.963 4.65-5.632 5.93l1.536 4.054c5.888-1.792 9.088-5.93 9.088-11.434 0-4.438-1.835-7.083-5.163-7.083-2.645 0-4.736 1.707-4.736 4.267 0 2.73 2.176 4.266 4.523 4.266zM285.16 156.259c4.139 0 7.68-1.579 10.368-4.693l-4.01-4.78c-1.494 1.622-3.542 2.902-6.06 2.902-4.48 0-7.38-3.67-7.38-9.984 0-6.186 3.37-9.856 7.466-9.856 2.261 0 3.925 1.024 5.504 2.475l4.01-4.864c-2.175-2.219-5.503-4.139-9.642-4.139-8.064 0-15.147 6.059-15.147 16.64 0 10.752 6.827 16.299 14.891 16.299M299.653 155.662h11.99c6.911 0 12.415-2.902 12.415-9.387 0-4.224-2.432-6.613-5.632-7.467v-.17c2.56-.982 4.139-4.054 4.139-6.87 0-6.101-5.248-7.85-11.819-7.85h-11.093zm7.637-19.158v-6.784h3.158c3.2 0 4.693.939 4.693 3.2 0 2.176-1.45 3.584-4.693 3.584zm0 13.312v-7.68h3.798c3.712 0 5.546 1.024 5.546 3.627 0 2.73-1.877 4.053-5.546 4.053zM326.306 155.662h23.21v-6.4h-13.823l13.696-20.78v-4.564h-21.76v6.314h12.373l-13.696 20.822zM358.42 155.363c0 2.39-1.963 4.65-5.632 5.93l1.536 4.054c5.888-1.792 9.088-5.93 9.088-11.435 0-4.437-1.835-7.082-5.163-7.082-2.645 0-4.736 1.706-4.736 4.266 0 2.73 2.176 4.267 4.523 4.267zM377.891 155.662H398.5v-6.4h-12.97v-6.742h10.623v-6.4h-10.624v-5.888h12.502v-6.314H377.89zM404.245 155.662h7.638v-10.54h3.712c6.698 0 12.544-3.327 12.544-10.88 0-7.85-5.76-10.324-12.758-10.324h-11.136zm7.638-16.555v-9.173h3.114c3.67 0 5.718 1.109 5.718 4.309 0 3.115-1.792 4.864-5.504 4.864zM445.746 156.259c8.448 0 12.715-4.821 12.715-15.53v-16.811h-7.339v17.62c0 6.017-1.92 8.15-5.376 8.15-3.498 0-5.29-2.133-5.29-8.15v-17.62h-7.595v16.81c0 10.71 4.395 15.53 12.885 15.53M465.06 155.662h11.99c6.912 0 12.416-2.902 12.416-9.387 0-4.224-2.432-6.613-5.632-7.467v-.17c2.56-.982 4.138-4.054 4.138-6.87 0-6.101-5.248-7.85-11.818-7.85H465.06zm7.638-19.158v-6.784h3.157c3.2 0 4.693.939 4.693 3.2 0 2.176-1.45 3.584-4.693 3.584zm0 13.312v-7.68h3.797c3.712 0 5.547 1.024 5.547 3.627 0 2.73-1.878 4.053-5.547 4.053zM498.412 155.363c0 2.39-1.963 4.65-5.632 5.93l1.536 4.054c5.888-1.792 9.088-5.93 9.088-11.435 0-4.437-1.835-7.082-5.163-7.082-2.645 0-4.736 1.706-4.736 4.266 0 2.73 2.176 4.267 4.523 4.267zM523.43 156.259c2.688 0 4.949-1.237 6.954-3.03h.171l.555 2.433h6.186V141.88c0-7.594-3.541-11.093-9.813-11.093-3.797 0-7.253 1.28-10.453 3.2l2.645 4.992c2.432-1.365 4.437-2.133 6.357-2.133 2.475 0 3.499 1.152 3.67 3.114-9.472 1.024-13.483 3.798-13.483 8.918 0 4.053 2.73 7.38 7.21 7.38m2.602-5.888c-1.578 0-2.602-.683-2.602-2.09 0-1.707 1.536-3.073 6.272-3.713v3.883c-1.11 1.195-2.134 1.92-3.67 1.92M542.616 155.662h7.552v-16.214c1.493-1.408 2.517-2.176 4.224-2.176 1.92 0 2.816.982 2.816 4.31v14.08h7.595v-15.02c0-6.058-2.262-9.855-7.552-9.855-3.286 0-5.76 1.664-7.766 3.627h-.17l-.512-3.03h-6.187zM578.869 156.259c2.304 0 4.65-1.237 6.357-2.944h.17l.556 2.347h6.186V121.57h-7.637v8.107l.299 3.626c-1.58-1.536-3.158-2.517-5.846-2.517-5.034 0-10.026 4.779-10.026 12.757 0 7.894 3.882 12.715 9.94 12.715m2.005-6.23c-2.602 0-4.138-1.962-4.138-6.613 0-4.48 1.92-6.442 4.01-6.442 1.28 0 2.603.384 3.755 1.45v9.558c-1.024 1.578-2.176 2.048-3.627 2.048" style="font-weight:900;font-family:&quot;Source Han Sans&quot;;-inkscape-font-specification:&quot;Source Han Sans Heavy&quot;"/><path d="M271.72 217.65h7.637v-12.118h10.838v-6.357h-10.838v-6.955h12.63v-6.315H271.72z" style="font-weight:900;font-family:&quot;Source Han Sans&quot;;-inkscape-font-specification:&quot;Source Han Sans Heavy&quot;;display:inline"/><path d="M296.965 217.65h11.99c6.911 0 12.415-2.902 12.415-9.387 0-4.224-2.432-6.614-5.632-7.467v-.17c2.56-.982 4.139-4.054 4.139-6.87 0-6.101-5.248-7.85-11.819-7.85h-11.093Zm7.637-19.158v-6.784h3.158c3.2 0 4.693.939 4.693 3.2 0 2.176-1.45 3.584-4.693 3.584zm0 13.312v-7.68h3.798c3.712 0 5.546 1.024 5.546 3.627 0 2.73-1.877 4.053-5.546 4.053zM324.215 217.65h22.016v-6.4h-5.845c-1.408 0-3.584.213-5.163.426 4.864-4.907 9.558-10.923 9.558-16.384 0-6.059-4.267-9.984-10.411-9.984-4.523 0-7.424 1.621-10.539 4.907l4.139 4.096c1.493-1.622 3.2-3.072 5.376-3.072 2.517 0 4.139 1.578 4.139 4.48 0 4.608-5.334 10.368-13.27 17.578zM368.902 218.247c2.304 0 4.65-1.238 6.358-2.944h.17l.555 2.346h6.187v-34.09h-7.638v8.106l.299 3.627c-1.579-1.536-3.157-2.517-5.845-2.517-5.035 0-10.027 4.778-10.027 12.757 0 7.893 3.883 12.715 9.941 12.715m2.006-6.23c-2.603 0-4.14-1.962-4.14-6.613 0-4.48 1.92-6.443 4.012-6.443 1.28 0 2.602.384 3.754 1.45v9.558c-1.024 1.579-2.176 2.048-3.626 2.048M398.286 218.247c6.144 0 11.861-4.694 11.861-12.715 0-8.064-5.717-12.757-11.861-12.757-6.187 0-11.904 4.693-11.904 12.757 0 8.021 5.717 12.715 11.904 12.715m0-6.144c-2.859 0-4.139-2.56-4.139-6.571 0-4.053 1.28-6.613 4.139-6.613 2.816 0 4.096 2.56 4.096 6.613 0 4.01-1.28 6.57-4.096 6.57M425.11 218.247c2.56 0 5.631-.768 7.978-2.86l-2.901-4.991c-1.238.981-2.688 1.707-4.224 1.707-2.987 0-5.163-2.56-5.163-6.571 0-4.053 2.09-6.613 5.419-6.613 1.066 0 2.005.384 3.114 1.322l3.542-4.864c-1.835-1.578-4.139-2.602-7.083-2.602-6.784 0-12.757 4.693-12.757 12.757 0 8.021 5.248 12.715 12.074 12.715M444.082 218.247c3.328 0 5.59-1.536 7.595-3.926h.17l.555 3.328h6.187v-24.277h-7.595v15.915c-1.28 1.792-2.346 2.474-4.053 2.474-1.92 0-2.816-.938-2.816-4.31v-14.08h-7.595v15.02c0 6.058 2.262 9.856 7.552 9.856M464.164 217.65h7.552v-16.214c1.451-1.493 2.774-2.176 3.883-2.176 1.92 0 2.773.981 2.773 4.31v14.08h7.638v-16.214c1.45-1.493 2.773-2.176 3.882-2.176 1.92 0 2.774.981 2.774 4.31v14.08h7.594v-15.02c0-6.058-2.304-9.855-7.594-9.855-3.243 0-5.504 1.877-7.595 4.01-1.237-2.602-3.285-4.01-6.656-4.01-3.285 0-5.376 1.664-7.381 3.669h-.17l-.513-3.072h-6.187zM516.63 218.247c2.86 0 6.187-.982 8.705-2.774l-2.518-4.565c-1.749 1.024-3.37 1.536-5.12 1.536-3.072 0-5.376-1.365-6.058-4.693h14.25c.171-.555.342-1.92.342-3.243 0-6.656-3.414-11.733-10.411-11.733-5.888 0-11.52 4.864-11.52 12.757 0 8.021 5.376 12.715 12.33 12.715m-5.12-15.446c.513-2.901 2.347-4.224 4.438-4.224 2.773 0 3.84 1.792 3.84 4.224zM530.569 217.65h7.552v-16.214c1.493-1.408 2.517-2.176 4.224-2.176 1.92 0 2.816.981 2.816 4.31v14.08h7.595v-15.02c0-6.058-2.262-9.855-7.552-9.855-3.286 0-5.76 1.664-7.766 3.626h-.17l-.512-3.03h-6.187zM567.675 218.247c2.475 0 4.224-.512 5.504-.896l-1.194-5.462c-.598.171-1.451.427-2.22.427-1.791 0-3.071-1.067-3.071-3.755v-9.258h5.717v-5.931h-5.717v-6.4h-6.315l-.853 6.4-3.712.299v5.632h3.285v9.344c0 5.76 2.475 9.6 8.576 9.6M583.32 218.247c6.613 0 10.112-3.456 10.112-7.936 0-4.395-3.37-6.144-6.4-7.296-2.517-.896-4.736-1.451-4.736-2.902 0-1.152.853-1.75 2.56-1.75 1.621 0 3.328.854 5.035 2.049l3.413-4.523c-2.133-1.578-4.864-3.114-8.704-3.114-5.632 0-9.387 3.114-9.387 7.722 0 4.01 3.414 5.974 6.315 7.126 2.475.98 4.821 1.664 4.821 3.114 0 1.195-.853 1.92-2.858 1.92-1.92 0-3.926-.853-6.144-2.56l-3.37 4.736c2.431 2.048 6.186 3.414 9.343 3.414" style="font-weight:900;font-family:&quot;Source Han Sans&quot;;-inkscape-font-specification:&quot;Source Han Sans Heavy&quot;"/><path d="M601.738 218.247c2.603 0 4.523-2.091 4.523-4.736 0-2.603-1.92-4.694-4.523-4.694-2.645 0-4.522 2.09-4.522 4.694 0 2.645 1.877 4.736 4.522 4.736" style="font-weight:900;font-family:&quot;Source Han Sans&quot;;-inkscape-font-specification:&quot;Source Han Sans Heavy&quot;;display:inline"/></g></svg>