<svg xmlns="http://www.w3.org/2000/svg" xml:space="preserve" width="512" height="250"><defs><linearGradient id="a" x1="198.453" x2="198.453" y1="373.698" y2="-4.981" gradientTransform="matrix(.55182 0 0 .55182 -.019 1.402)" gradientUnits="userSpaceOnUse"><stop offset="0" stop-color="#fd4d07"/><stop offset="1" stop-color="#fd8f2f"/></linearGradient><path id="b" d="M184.933-14.135h269.651v281.249H184.933z"/></defs><path d="M0 0h512v250H0z" style="fill:#fff;stroke-width:1.722;stroke-miterlimit:6.4;paint-order:markers stroke fill"/><g transform="matrix(.9589 0 0 .9589 35.27 20.779)"><path fill="url(#a)" d="M154.825 12.881h2.259c15.01 0 27.15-1.989 38.023-10.1 5.46-4.03 13.354 1.382 8.276 10.429a41.5 41.5 0 0 1-13.185 14.235 33.8 33.8 0 0 1 8.883 2.431c10.206 4.248 17.214 12.912 19.92 22.844a34.5 34.5 0 0 1-30.295 1.657 32 32 0 0 1-3.81-1.93V164.91c0 10.977-4.412 13.295-13.13 13.295h-25.66v24.614a4.747 4.747 0 0 1-4.745 4.745h-9.603a4.68 4.68 0 0 1-3.367-1.378 4.7 4.7 0 0 1-1.433-3.367v-5.187c0-5.959-5.302-5.959-5.302 0v5.187a4.744 4.744 0 0 1-4.744 4.745h-9.6a4.79 4.79 0 0 1-4.8-4.745c0-20.471-36.53-20.695-36.53 0 0 2.646-2.209 4.745-4.805 4.745h-9.6a4.68 4.68 0 0 1-3.366-1.378 4.7 4.7 0 0 1-1.433-3.367v-5.187c0-5.52-5.301-5.52-5.301 0v5.187c0 2.646-2.204 4.745-4.8 4.745h-9.6a4.79 4.79 0 0 1-4.804-4.745v-58.937c-8.883 3.586-10.703 9.27-10.867 16.667 7.998 7.007 7.56 20.53-2.487 30.13-11.255-9.659-11.036-24.117-3.914-29.797.88-36.09 45.742-48.399 51.482-81.782V60.226h.11v-7.834a32 32 0 0 1-3.97 1.985c-10.156 4.306-21.247 3.312-30.24-1.657 2.701-9.932 9.764-18.596 19.92-22.844a35.1 35.1 0 0 1 8.883-2.427 32 32 0 0 1-1.766-1.213h.055a41.1 41.1 0 0 1-11.42-12.971c-5.078-9.102 2.81-14.568 8.277-10.48 10.981 8.167 24.61 10.101 37.963 10.101Z" style="fill:url(#a);stroke-width:4.56241"/><path fill="#fff" d="M136.393 25.186 154.05 44.28l17.825 19.258v101.591H69.677V25.186Z" style="stroke-width:4.56241"/><path fill="#fceab6" d="M171.875 165.13V118.5c-14.737-2.486-33.552-5.187-51.154-5.187-19.313 0-35.313 3.034-51.099 5.958v45.912h102.253ZM85.846 95.046h69.86v6.068h-69.86ZM85.846 69.665h69.75v6.013h-69.75ZM85.846 44.28h47.623v6.013H85.846Z" style="stroke-width:4.56241"/><ellipse cx="139.318" cy="72.366" fill="#ff7c21" rx="7.56" ry="9.768" style="stroke-width:4.56241"/><ellipse cx="102.179" cy="72.366" fill="#ff7c21" rx="7.56" ry="9.768" style="stroke-width:4.56241"/><ellipse cx="95.117" cy="139.247" fill="#ff610f" rx="10.594" ry="14.125" style="stroke-width:4.56241"/><ellipse cx="146.435" cy="139.247" fill="#ff610f" rx="10.594" ry="14.125" style="stroke-width:4.56241"/></g><g aria-label="PDF, XPS, CBZ, FB2, EPUB" style="font-style:italic;font-size:37.3333px;line-height:48.0667px;font-family:C059;-inkscape-font-specification:&quot;C059, Italic&quot;;letter-spacing:-.39px;word-spacing:0;white-space:pre;shape-inside:url(#b);display:inline;stroke-width:1px" transform="translate(62.421 18.602)"><path d="M194.153 6.875h.672c6.944 0 8.288-.187 10.79-1.531 2.613-1.381 4.069-3.808 4.069-6.795 0-2.314-.971-4.181-2.763-5.413-1.381-.933-3.36-1.344-6.459-1.344H189.45l-.224 1.755h.97c2.427 0 2.95.186 2.95 1.008 0 .298-.15 1.045-.336 1.829l-4.779 17.77c-.485 1.905-.522 1.98-.858 2.315-.374.374-1.158.486-3.099.523h-.187l-.186 1.755h11.872l.186-1.755h-.97c-2.427 0-2.95-.187-2.95-1.008 0-.299.15-.933.374-1.83zm.485-1.755 2.614-9.781c.373-1.456.746-1.718 2.389-1.792h.448c1.307 0 2.576.186 3.248.448 1.419.597 2.165 2.016 2.165 4.144 0 2.389-.933 4.592-2.464 5.749-1.045.747-2.725 1.27-4.33 1.27l-3.36-.038zM206.606 18.747h11.274c5.264 0 8.475-.822 11.05-2.875 3.996-3.173 6.534-8.363 6.534-13.365 0-3.808-1.381-6.907-3.882-8.774-1.867-1.418-4.22-1.941-8.4-1.941h-10.827l-.224 1.755h.97c2.427 0 2.95.186 2.95 1.008 0 .298-.15 1.045-.336 1.829l-4.779 17.77c-.485 1.905-.522 1.98-.858 2.315-.374.374-1.158.486-3.1.523h-.186zm9.893-1.755c-1.157 0-1.717-.336-1.717-1.083 0-.298.074-.821.224-1.27l4.965-18.666c.523-2.128.896-2.426 2.837-2.426h1.12c2.24 0 4.144.597 5.227 1.642 1.083 1.083 1.792 3.136 1.792 5.302 0 5.114-2.539 11.685-5.563 14.373-1.68 1.456-4.07 2.128-7.69 2.128zM262.738-8.208H241.16l-.224 1.755h.97c2.427 0 2.95.186 2.95 1.008 0 .298-.15 1.045-.336 1.829l-4.78 17.77c-.484 1.83-.522 1.98-.858 2.315-.373.374-1.157.523-3.098.523h-.187l-.187 1.755h11.872l.187-1.755h-.97c-2.427 0-2.95-.187-2.95-1.008 0-.299.15-.933.373-1.83l2.315-8.623h.821c2.8.037 4.144 1.12 4.144 3.434 0 .784-.074 1.344-.336 2.539l1.68.299 3.323-12.47-1.68-.224c-1.157 3.398-2.912 4.592-6.645 4.667h-.86l2.054-7.653c.598-2.352.896-2.54 3.734-2.576h1.94q2.41 0 3.809 1.232c1.045.933 1.381 2.128 1.381 4.704V.789h1.68zM257.084 24.981c4.032-1.568 6.608-4.442 6.608-7.317 0-1.717-1.082-2.987-2.576-2.987-1.418 0-2.501 1.008-2.501 2.315 0 1.195.821 1.979 2.09 1.979.15 0 .374 0 .635-.038-.336 1.904-1.978 3.622-4.741 4.89zM220.066 52.179l6.795-6.944c2.875-2.912 3.995-3.547 6.608-3.622l.187-1.754H223.09l-.186 1.754h.746c1.307 0 1.942.336 1.942 1.083s-.486 1.568-1.792 2.912l-4.555 4.667-2.688-6.422c-.373-.896-.373-.896-.373-1.194 0-.71.784-1.046 2.5-1.046h.673l.187-1.754h-11.76l-.187 1.754h.896c2.576.075 2.837.262 3.845 2.614l3.883 9.146-7.355 7.728c-2.8 2.95-3.92 3.622-6.496 3.958l-.186 1.754h10.677l.224-1.754h-.56c-1.643 0-2.539-.448-2.539-1.307 0-.672.523-1.568 1.456-2.539l5.638-5.936 3.36 7.99c.149.336.224.709.224.933 0 .672-.448.859-2.278.859h-1.157l-.224 1.754h11.984l.187-1.754h-.971c-2.464 0-2.763-.224-3.808-2.726zM240.023 54.941h.672c6.944 0 8.288-.186 10.79-1.53 2.613-1.382 4.069-3.808 4.069-6.795 0-2.315-.971-4.181-2.763-5.413-1.381-.934-3.36-1.344-6.459-1.344H235.32l-.224 1.754h.97c2.427 0 2.95.187 2.95 1.008 0 .299-.15 1.046-.336 1.83L233.9 62.22c-.485 1.904-.522 1.979-.858 2.315-.374.373-1.158.485-3.1.523h-.186l-.186 1.754h11.872l.186-1.754h-.97c-2.427 0-2.95-.187-2.95-1.008 0-.3.15-.934.374-1.83zm.485-1.754 2.614-9.782c.373-1.456.746-1.717 2.389-1.792h.448c1.307 0 2.576.187 3.248.448 1.419.598 2.165 2.016 2.165 4.144 0 2.39-.933 4.592-2.464 5.75-1.045.746-2.725 1.269-4.33 1.269l-3.36-.037zM278.16 40.12h-1.418l-2.016 1.941c-1.941-1.904-4.032-2.762-6.794-2.762-5.04 0-8.96 3.658-8.96 8.362a6.8 6.8 0 0 0 1.754 4.555c.747.821 1.792 1.456 3.734 2.277l3.21 1.344c2.09.859 2.464 1.046 2.912 1.344 1.083.784 1.643 1.867 1.643 3.248 0 3.174-2.613 5.339-6.496 5.339-2.427 0-4.219-.747-5.675-2.39-1.381-1.567-1.978-3.36-1.978-5.898 0-.15 0-.635.037-1.045l-1.493-.262-2.054 10.64h1.307l2.203-2.352c2.09 1.942 4.666 2.912 7.69 2.912 5.824 0 10.043-3.621 10.043-8.55 0-3.658-1.568-5.562-6.01-7.316l-3.174-1.27c-2.95-1.157-4.256-2.538-4.256-4.442 0-2.8 2.501-4.891 5.824-4.891 3.995 0 6.421 3.024 6.421 7.952 0 .112 0 .41-.037.747l1.568.261zM278.107 73.048c4.032-1.568 6.608-4.443 6.608-7.317 0-1.718-1.083-2.987-2.576-2.987-1.419 0-2.501 1.008-2.501 2.315 0 1.194.82 1.978 2.09 1.978.15 0 .374 0 .635-.037-.336 1.904-1.979 3.621-4.741 4.89zM247.92 90.352c-1.828-2.128-3.695-2.987-6.532-2.987-4.107 0-7.84 1.942-10.864 5.675-2.726 3.36-4.144 7.243-4.144 11.387 0 6.682 4.33 11.013 10.976 11.013 3.285 0 6.085-1.12 8.213-3.36 1.157-1.157 1.979-2.539 2.987-4.853l-1.531-.672c-.933 1.978-1.456 2.874-2.128 3.696-1.83 2.277-4.107 3.36-6.907 3.36-4.368 0-6.944-2.875-6.944-7.691 0-4.293 1.494-9.221 3.846-12.805 1.717-2.651 4.18-4.144 6.794-4.144 2.464 0 4.219 1.269 5.227 3.77.597 1.382.859 3.024.97 5.899h1.531l2.09-10.453h-1.343zM256.043 87.925l-.224 1.755h.97c2.427 0 2.95.187 2.95 1.008 0 .299-.15 1.045-.336 1.83l-4.779 17.77c-.485 1.904-.522 1.979-.858 2.315-.3.336-1.083.485-2.726.522h-.56l-.186 1.755h13.552c2.725 0 5.002-.336 6.496-1.008 2.874-1.232 4.629-3.77 4.629-6.683 0-1.642-.597-2.949-1.904-4.144-.933-.858-1.979-1.418-3.957-2.016 1.829-.336 2.949-.709 4.18-1.456 1.98-1.194 3.1-3.136 3.1-5.413 0-2.165-1.12-4.032-3.024-5.077-1.531-.822-3.211-1.158-6.086-1.158zm5.45 12.246 2.166-7.952c.635-2.315.859-2.502 2.8-2.539h1.083c3.06 0 4.405 1.195 4.405 3.92 0 2.09-.896 4.107-2.352 5.227-1.195.933-2.8 1.344-5.003 1.344zm-.447 1.754h2.352c1.792 0 3.509.224 4.33.56 1.718.71 2.688 2.166 2.688 3.995 0 1.941-.896 3.92-2.314 5.152-1.12.97-2.95 1.493-5.19 1.493h-1.866c-2.054 0-2.614-.224-2.614-1.008 0-.298.075-.746.224-1.306zM302.394 87.925h-18.778l-3.024 8.923 1.53.41c3.659-6.57 4.89-7.429 10.976-7.578h3.584l-19.898 23.781-.224 1.419h20.682l3.062-9.557-1.568-.448c-3.1 6.384-5.675 8.213-11.462 8.25h-5.04l19.936-23.744ZM301.743 121.115c4.032-1.568 6.608-4.443 6.608-7.318 0-1.717-1.083-2.986-2.576-2.986-1.419 0-2.502 1.008-2.502 2.314 0 1.195.822 1.979 2.091 1.979.15 0 .373 0 .635-.037-.336 1.904-1.979 3.621-4.742 4.89zM270.922 135.992h-21.578l-.224 1.755h.97c2.427 0 2.95.186 2.95 1.008 0 .298-.15 1.045-.336 1.829l-4.78 17.77c-.484 1.83-.522 1.98-.858 2.315-.373.374-1.157.523-3.098.523h-.187l-.187 1.755h11.872l.187-1.755h-.97c-2.427 0-2.95-.187-2.95-1.008 0-.299.15-.933.373-1.83l2.315-8.623h.821c2.8.037 4.144 1.12 4.144 3.434 0 .784-.074 1.344-.336 2.539l1.68.299 3.323-12.47-1.68-.224c-1.157 3.398-2.912 4.592-6.645 4.667h-.86l2.054-7.653c.598-2.352.896-2.539 3.734-2.576h1.94q2.41 0 3.809 1.232c1.045.933 1.381 2.128 1.381 4.704v1.306h1.68zM273.967 135.992l-.224 1.755h.97c2.427 0 2.95.186 2.95 1.008 0 .298-.15 1.045-.336 1.829l-4.779 17.77c-.485 1.905-.522 1.98-.858 2.315-.3.336-1.083.486-2.726.523h-.56l-.186 1.755h13.552c2.725 0 5.002-.336 6.496-1.008 2.874-1.232 4.629-3.771 4.629-6.683 0-1.643-.597-2.95-1.904-4.144-.933-.859-1.979-1.419-3.957-2.016 1.829-.336 2.949-.71 4.18-1.456 1.98-1.195 3.1-3.136 3.1-5.413 0-2.166-1.12-4.032-3.024-5.078-1.531-.821-3.211-1.157-6.086-1.157zm5.45 12.245 2.166-7.952c.635-2.314.859-2.501 2.8-2.538h1.083c3.06 0 4.405 1.194 4.405 3.92 0 2.09-.896 4.106-2.352 5.226-1.195.934-2.8 1.344-5.003 1.344zm-.447 1.755h2.352c1.792 0 3.509.224 4.33.56 1.718.71 2.688 2.165 2.688 3.995 0 1.941-.896 3.92-2.314 5.152-1.12.97-2.95 1.493-5.19 1.493h-1.866c-2.054 0-2.614-.224-2.614-1.008 0-.299.075-.747.224-1.307zM312.18 155.219l-.971 1.717c-1.493 2.576-1.792 2.8-3.696 2.837h-8.661c.896-1.194 2.538-2.576 5.525-4.666 4.928-3.398 5.264-3.622 6.31-4.443 2.986-2.315 4.218-4.517 4.218-7.467 0-3.92-2.912-6.533-7.205-6.533-4.78 0-8.923 3.51-8.923 7.579 0 2.09 1.12 3.434 2.912 3.434 1.344 0 2.39-1.008 2.39-2.389 0-.97-.486-1.605-1.718-2.277-.896-.448-1.045-.635-1.045-1.083 0-1.605 2.762-3.397 5.3-3.397 2.614 0 4.369 1.754 4.369 4.368 0 2.8-1.232 4.853-4.592 7.765-9.93 8.624-11.424 10.192-11.76 12.283h16.016l2.875-7.206zM315.336 169.181c4.032-1.568 6.608-4.442 6.608-7.317 0-1.717-1.083-2.987-2.576-2.987-1.419 0-2.501 1.008-2.501 2.315 0 1.195.821 1.979 2.09 1.979.15 0 .374 0 .635-.038-.336 1.904-1.979 3.622-4.741 4.891zM291.012 184.059h-21.803l-.224 1.754h.97c2.427 0 2.95.187 2.95 1.008 0 .3-.15 1.046-.336 1.83l-4.779 17.77c-.485 1.83-.522 1.979-.858 2.315-.374.373-1.158.523-3.1.523h-.186l-.186 1.754h22.437l2.912-9.146-1.53-.299c-3.1 5.861-5.638 7.616-10.977 7.69h-2.016c-1.941 0-2.613-.298-2.613-1.194 0-.448.037-.635.41-2.053l2.203-8.214h.822c2.8.038 4.144 1.12 4.144 3.435 0 .784-.075 1.344-.336 2.539l1.68.298 3.322-12.469-1.68-.224c-1.157 3.397-2.912 4.592-6.645 4.667h-.859l2.054-7.654c.597-2.352.896-2.538 3.733-2.576h2.165q2.409 0 3.808 1.232c1.046.934 1.382 2.091 1.382 4.742v1.269h1.68zM300.627 199.141h.672c6.944 0 8.288-.186 10.79-1.53 2.613-1.382 4.069-3.808 4.069-6.795 0-2.315-.971-4.181-2.763-5.413-1.381-.934-3.36-1.344-6.459-1.344h-11.013l-.224 1.754h.97c2.427 0 2.95.187 2.95 1.008 0 .3-.15 1.046-.336 1.83l-4.779 17.77c-.485 1.904-.522 1.979-.858 2.315-.374.373-1.158.485-3.1.523h-.186l-.186 1.754h11.872l.186-1.754h-.97c-2.427 0-2.95-.187-2.95-1.008 0-.299.15-.934.374-1.83zm.485-1.754 2.614-9.782c.373-1.456.746-1.717 2.389-1.792h.448c1.307 0 2.576.187 3.248.448 1.419.598 2.165 2.016 2.165 4.144 0 2.39-.933 4.592-2.464 5.75-1.045.746-2.725 1.269-4.33 1.269l-3.36-.037zM318.418 185.813h.933c2.427 0 2.95.187 2.95 1.008 0 .3-.15 1.046-.336 1.83l-3.062 11.386c-.597 2.203-.746 3.099-.746 4.406 0 4.629 3.248 7.13 9.333 7.13 1.904 0 3.77-.298 5.227-.858 2.426-.934 3.882-2.539 5.04-5.563.522-1.307.522-1.307 1.53-5.115l2.091-7.877c1.605-5.787 1.941-6.197 5.227-6.347l.186-1.754h-9.818l-.224 1.754c2.39-.037 3.472.635 3.472 2.054 0 .821-.038.97-.859 4.293l-2.165 8.027c-1.083 4.144-1.53 5.376-2.427 6.645q-2.184 3.136-6.496 3.136c-3.808 0-6.01-1.867-6.01-5.04 0-1.008.26-2.763.522-3.845l3.36-12.432c.485-1.867.523-1.979.859-2.315.336-.373 1.12-.485 3.098-.523h.15l.224-1.754h-11.872zM349.313 184.059l-.224 1.754h.971c2.427 0 2.95.187 2.95 1.008 0 .3-.15 1.046-.337 1.83l-4.778 17.77c-.486 1.904-.523 1.979-.859 2.315-.299.336-1.083.485-2.725.523h-.56l-.187 1.754h13.552c2.725 0 5.003-.336 6.496-1.008 2.875-1.232 4.63-3.77 4.63-6.682 0-1.643-.598-2.95-1.905-4.144-.933-.859-1.978-1.419-3.957-2.016 1.83-.336 2.95-.71 4.181-1.456 1.98-1.195 3.1-3.136 3.1-5.414 0-2.165-1.12-4.032-3.025-5.077-1.53-.821-3.21-1.157-6.085-1.157zm5.451 12.245 2.165-7.952c.635-2.315.86-2.501 2.8-2.539h1.083c3.061 0 4.405 1.195 4.405 3.92 0 2.091-.896 4.107-2.352 5.227-1.194.933-2.8 1.344-5.002 1.344zm-.448 1.755h2.352c1.792 0 3.51.224 4.33.56 1.718.709 2.689 2.165 2.689 3.994 0 1.942-.896 3.92-2.315 5.152-1.12.971-2.95 1.494-5.19 1.494h-1.866c-2.053 0-2.613-.224-2.613-1.008 0-.299.074-.747.224-1.307z"/></g></svg>