<svg xmlns="http://www.w3.org/2000/svg" xmlns:xlink="http://www.w3.org/1999/xlink" viewBox="0 0 892.555 241.469"><defs><style>.a,.b,.c,.d,.e,.f,.g{fill-rule:evenodd;}.a{fill:url(#a);}.b{fill:url(#b);}.c{fill:url(#c);}.d{fill:url(#d);}.e{fill:url(#e);}.f{fill:url(#f);}.g{fill:#ec7f38;}.h{fill:#e9800b;}.i{fill:#1c1c1e;}</style><linearGradient id="a" x1="-4.141" y1="797.831" x2="-3.832" y2="797.831" gradientTransform="matrix(0, 93.772, 93.772, 0, -74468.833, 665.048)" gradientUnits="userSpaceOnUse"><stop offset="0" stop-color="#f38200"/><stop offset="1" stop-color="#e33b00"/></linearGradient><linearGradient id="b" x1="-0.193" y1="799.854" x2="0.116" y2="799.854" gradientTransform="matrix(0, 259.375, 259.375, 0, -207116.812, 249.437)" gradientUnits="userSpaceOnUse"><stop offset="0" stop-color="#d86722"/><stop offset="1" stop-color="#faa000"/></linearGradient><radialGradient id="c" cx="0.155" cy="801.934" r="0.33" gradientTransform="matrix(344.397, 0, 0, -344.397, 294.508, 276388.851)" gradientUnits="userSpaceOnUse"><stop offset="0" stop-color="#e25600"/><stop offset="1" stop-color="#e25900" stop-opacity="0"/></radialGradient><linearGradient id="d" x1="1.014" y1="800.555" x2="1.323" y2="800.555" gradientTransform="matrix(0, 667.187, 667.187, 0, -533774.755, -619.44)" gradientUnits="userSpaceOnUse"><stop offset="0" stop-color="#faa000"/><stop offset="1" stop-color="#d85f15"/></linearGradient><linearGradient id="e" x1="0.612" y1="799.09" x2="0.921" y2="799.09" gradientTransform="matrix(0, 155.49, 155.49, 0, -123905.179, -6.855)" gradientUnits="userSpaceOnUse"><stop offset="0" stop-color="#edeef0"/><stop offset="1" stop-color="#d1d3d5"/></linearGradient><linearGradient id="f" x1="-0.24" y1="799.463" x2="0.069" y2="799.463" gradientTransform="matrix(0, 193.148, 193.148, 0, -154069.718, 214.703)" xlink:href="#e"/></defs><title>dav1d</title><path class="a" d="M245.519,277.146a.726.726,0,0,1,.8-.741,24.866,24.866,0,0,1,8.143-1.615l178.01.755c2.341.01,6.131.214,8.448.5,0,0,4.411.311,4.411,1.1a17.347,17.347,0,0,1-.221,2.132,4.979,4.979,0,0,1-4.807,4.2H250.547a4.977,4.977,0,0,1-4.807-4.2A17.347,17.347,0,0,1,245.519,277.146Z" transform="translate(-43.722 -44.266)"/><path class="b" d="M417.643,199.5H273.205a6.1,6.1,0,0,0-5.494,4.07L245.7,275.547a2.971,2.971,0,0,0,3.016,4.069h193.42a2.971,2.971,0,0,0,3.016-4.069l-22.012-71.978A6.106,6.106,0,0,0,417.643,199.5Z" transform="translate(-43.722 -44.266)"/><path class="c" d="M417.643,199.5H273.205a6.1,6.1,0,0,0-5.494,4.07L245.7,275.547a2.971,2.971,0,0,0,3.016,4.069h193.42a2.971,2.971,0,0,0,3.016-4.069l-22.012-71.978A6.106,6.106,0,0,0,417.643,199.5Z" transform="translate(-43.722 -44.266)"/><path class="d" d="M345.409,263.207c-65.958,0-65.526-30.6-65.526-30.6a16.462,16.462,0,0,1,.506-6.082L331.908,62.461a6.91,6.91,0,0,1,3.872-4.056s1.623-1.282,9.945-1.282,9.4,1.213,9.4,1.213a7.372,7.372,0,0,1,3.835,4.125l51.47,164.064a15.127,15.127,0,0,1,.506,6.082S411.368,263.207,345.409,263.207Z" transform="translate(-43.722 -44.266)"/><path class="e" d="M323.571,89.008a63.831,63.831,0,0,0,21.068,4.024,57.933,57.933,0,0,0,22.411-4.786l12.293,39.187c-3.4,3.207-12.52,8.842-34.7,8.842-21.625,0-30.077-5.355-33.211-8.595Z" transform="translate(-43.722 -44.266)"/><path class="f" d="M298.33,169.392C300.473,172.8,310.156,184.1,344.4,184.1c35.433,0,45.78-12.7,47.769-15.785l11.675,37.214c-2.27,4.578-14.039,22.447-59.444,22.447-43.386,0-54.973-16.317-57.632-21.761Z" transform="translate(-43.722 -44.266)"/><path class="g" d="M357.132,59.691c-1.31,1.574-6.055,2.741-11.708,2.741-5.636,0-10.369-1.159-11.695-2.726a5.631,5.631,0,0,1,2.051-1.3s1.623-1.282,9.945-1.282,9.4,1.213,9.4,1.213A6.418,6.418,0,0,1,357.132,59.691Z" transform="translate(-43.722 -44.266)"/><path class="h" d="M638.853,57.806h86.119a6.6,6.6,0,0,1,6.6,6.595V276.882a6.6,6.6,0,0,1-6.6,6.6H680.778a6.6,6.6,0,0,1-6.6-6.6V110.18a6.6,6.6,0,0,0-6.6-6.6H626.174a6.6,6.6,0,0,1-6.146-8.987L632.706,62.01A6.6,6.6,0,0,1,638.853,57.806Z" transform="translate(-43.722 -44.266)"/><path class="i" d="M826.988,107.454c16.982,0,31.481,4.969,42.836,14.117a6.584,6.584,0,0,0,10.68-5.17V50.861a6.6,6.6,0,0,1,6.6-6.595h42.583a6.6,6.6,0,0,1,6.6,6.595V276.882a6.6,6.6,0,0,1-6.6,6.6H887.1a6.6,6.6,0,0,1-6.6-6.6h0a6.586,6.586,0,0,0-10.729-5.129c-11.113,9.061-25.076,13.981-41.5,13.981-49,0-81.243-36.107-81.243-89.946C747.035,142.594,778.951,107.454,826.988,107.454Zm14.83,135.08c23.212,0,38.686-18.7,38.686-45.457s-15.474-45.134-38.686-45.134-38.687,18.376-39.009,45.134C803.131,223.836,818.606,242.534,841.818,242.534Z" transform="translate(-43.722 -44.266)"/><path class="i" d="M123.675,107.454c16.982,0,31.481,4.969,42.836,14.117a6.584,6.584,0,0,0,10.68-5.17V50.861a6.6,6.6,0,0,1,6.6-6.595h42.581a6.6,6.6,0,0,1,6.6,6.595V276.882a6.6,6.6,0,0,1-6.6,6.6H183.787a6.6,6.6,0,0,1-6.6-6.6h0a6.586,6.586,0,0,0-10.729-5.129c-11.113,9.061-25.076,13.981-41.5,13.981-49,0-81.243-36.107-81.243-89.946C43.722,142.594,75.639,107.454,123.675,107.454Zm14.83,135.08c23.212,0,38.686-18.7,38.686-45.457s-15.474-45.134-38.686-45.134S99.818,170.319,99.5,197.077C99.818,223.836,115.293,242.534,138.505,242.534Z" transform="translate(-43.722 -44.266)"/><path class="h" d="M532.87,279.286,616.05,66.805a6.6,6.6,0,0,0-6.142-9H573.477A6.6,6.6,0,0,0,567.335,62L508.5,212.286a6.6,6.6,0,0,1-12.283,0L437.386,62a6.6,6.6,0,0,0-6.142-4.191H394.813a6.6,6.6,0,0,0-6.142,9L471.85,279.286a6.6,6.6,0,0,0,6.142,4.192h48.737A6.594,6.594,0,0,0,532.87,279.286Z" transform="translate(-43.722 -44.266)"/></svg>
