<svg xmlns="http://www.w3.org/2000/svg" width="48" height="48">
<defs>
<linearGradient id="g" x1="198.453" x2="198.453" y1="373.698" y2="-4.981" gradientTransform="translate(-.004 1.407)scale(.12095)" gradientUnits="userSpaceOnUse">
<stop offset="0" stop-color="#fd4d07"/>
<stop offset="1" stop-color="#fd8f2f"/>
</linearGradient>
</defs>
<path fill="url(#g)" d="M33.935 3.923h.495c3.29 0 5.951-.436 8.334-2.214 1.197-.883 2.927.303 1.814 2.286a9.1 9.1 0 0 1-2.89 3.12 7.4 7.4 0 0 1 1.947.533c2.237.931 3.773 2.83 4.366 5.007a7.56 7.56 0 0 1-6.64.363 7 7 0 0 1-.835-.423v24.65c0 2.406-.967 2.914-2.878 2.914h-5.624v5.395c0 .58-.472 1.04-1.04 1.04h-2.105c-.29 0-.544-.109-.738-.302a1.03 1.03 0 0 1-.314-.738v-1.137c0-1.306-1.162-1.306-1.162 0v1.137c0 .58-.471 1.04-1.04 1.04h-2.104a1.05 1.05 0 0 1-1.052-1.04c0-4.487-8.007-4.536-8.007 0 0 .58-.484 1.04-1.053 1.04h-2.104c-.29 0-.544-.109-.738-.302a1.03 1.03 0 0 1-.314-.738v-1.137c0-1.21-1.162-1.21-1.162 0v1.137c0 .58-.483 1.04-1.052 1.04H5.935a1.05 1.05 0 0 1-1.053-1.04V32.636c-1.947.786-2.346 2.032-2.382 3.653 1.753 1.536 1.657 4.5-.545 6.604-2.467-2.117-2.419-5.286-.858-6.531.193-7.91 10.026-10.608 11.284-17.925V14.3h.024v-1.717a7 7 0 0 1-.87.435c-2.226.944-4.657.726-6.628-.363.592-2.177 2.14-4.076 4.366-5.007a7.7 7.7 0 0 1 1.947-.532 7 7 0 0 1-.387-.266h.012a9 9 0 0 1-2.503-2.843C7.229 2.012 8.958.814 10.156 1.71c2.407 1.79 5.394 2.214 8.321 2.214z"/>
<path fill="#fff" d="m29.895 6.62 3.87 4.185 3.907 4.221v22.267h-22.4V6.62Z" />
<path fill="#fceab6" d="M37.672 37.293v-10.22c-3.23-.545-7.354-1.137-11.212-1.137-4.233 0-7.74.665-11.2 1.306v10.063h22.412z"/>
<path fill="#fceab6" d="M18.816 21.932h15.312v1.33H18.816Z"/>
<path fill="#fceab6" d="M18.816 16.369h15.288v1.318H18.816Z"/>
<path fill="#fceab6" d="M18.816 10.805h10.438v1.318H18.816Z"/>
<ellipse fill="#ff7c21" cx="30.536" cy="16.961" rx="1.657" ry="2.141"/>
<ellipse fill="#ff7c21" cx="22.396" cy="16.961" rx="1.657" ry="2.141"/>
<ellipse fill="#ff610f" cx="20.848" cy="31.62" rx="2.322" ry="3.096"/>
<ellipse fill="#ff610f" cx="32.096" cy="31.62" rx="2.322" ry="3.096"/>
</svg>
