<svg xmlns="http://www.w3.org/2000/svg" xmlns:xlink="http://www.w3.org/1999/xlink" width="2401" height="2401" viewBox="0 0 2401 2401">
  <defs>
    <filter id="Dark_Grey" x="299" y="541" width="1849.5" height="1285.5" filterUnits="userSpaceOnUse">
      <feOffset dx="5" dy="5" input="SourceAlpha"/>
      <feGaussianBlur stdDeviation="1.5" result="blur"/>
      <feFlood flood-opacity="0.349"/>
      <feComposite operator="in" in2="blur"/>
      <feComposite in="SourceGraphic"/>
    </filter>
    <filter id="Mid_Grey" x="299" y="541" width="1849.5" height="1285.5" filterUnits="userSpaceOnUse">
      <feOffset dx="5" dy="5" input="SourceAlpha"/>
      <feGaussianBlur stdDeviation="1.5" result="blur-2"/>
      <feFlood flood-opacity="0.349"/>
      <feComposite operator="in" in2="blur-2"/>
      <feComposite in="SourceGraphic"/>
    </filter>
    <filter id="Dark_Main_Color" x="299" y="541" width="1849.5" height="1285.5" filterUnits="userSpaceOnUse">
      <feOffset dx="5" dy="5" input="SourceAlpha"/>
      <feGaussianBlur stdDeviation="1.5" result="blur-3"/>
      <feFlood flood-opacity="0.349"/>
      <feComposite operator="in" in2="blur-3"/>
      <feComposite in="SourceGraphic"/>
    </filter>
    <filter id="Main_Color" x="299" y="541" width="1849.5" height="1285.5" filterUnits="userSpaceOnUse">
      <feOffset dx="5" dy="5" input="SourceAlpha"/>
      <feGaussianBlur stdDeviation="1.5" result="blur-4"/>
      <feFlood flood-opacity="0.349"/>
      <feComposite operator="in" in2="blur-4"/>
      <feComposite in="SourceGraphic"/>
    </filter>
    <filter id="Text" x="468.5" y="698" width="1449.5" height="1742.5" filterUnits="userSpaceOnUse">
      <feOffset dx="-30" dy="30" input="SourceAlpha"/>
      <feGaussianBlur stdDeviation="7.5" result="blur-5"/>
      <feFlood flood-opacity="0.349"/>
      <feComposite operator="in" in2="blur-5"/>
      <feComposite in="SourceGraphic"/>
    </filter>
    <clipPath id="clip-SumatraPDF">
      <rect width="2401" height="2401"/>
    </clipPath>
  </defs>
  <g id="SumatraPDF" clip-path="url(#clip-SumatraPDF)">
    <g id="Icon" transform="translate(183.745 290.905)">
      <path id="Shadow" d="M100,0H1760a80,80,0,0,1,80,80V1266a10,10,0,0,1-10,10H100A100,100,0,0,1,0,1176V100A100,100,0,0,1,100,0Z" transform="translate(79.255 292.096)" fill="#212121"/>
      <path id="Black" d="M100,0H1760a80,80,0,0,1,80,80V1266a10,10,0,0,1-10,10H100A100,100,0,0,1,0,1176V100A100,100,0,0,1,100,0Z" transform="translate(115.255 250.096)" fill="#212121"/>
      <g transform="matrix(1, 0, 0, 1, -183.75, -290.9)" filter="url(#Dark_Grey)">
        <path id="Dark_Grey-2" data-name="Dark Grey" d="M100,0H1760a80,80,0,0,1,80,80v966a230,230,0,0,1-230,230H100A100,100,0,0,1,0,1176V100A100,100,0,0,1,100,0Z" transform="translate(299 541)" fill="#424242"/>
      </g>
      <g transform="matrix(1, 0, 0, 1, -183.75, -290.9)" filter="url(#Mid_Grey)">
        <path id="Mid_Grey-2" data-name="Mid Grey" d="M100,0H1760a80,80,0,0,1,80,80V846a430,430,0,0,1-430,430H100A100,100,0,0,1,0,1176V100A100,100,0,0,1,100,0Z" transform="translate(299 541)" fill="#616161"/>
      </g>
      <g transform="matrix(1, 0, 0, 1, -183.75, -290.9)" filter="url(#Dark_Main_Color)">
        <path id="Dark_Main_Color-2" data-name="Dark Main Color" d="M100,0H1760a80,80,0,0,1,80,80V596c0,375.554-304.446,680-680,680H100A100,100,0,0,1,0,1176V100A100,100,0,0,1,100,0Z" transform="translate(299 541)" fill="#a59f0c"/>
      </g>
      <g transform="matrix(1, 0, 0, 1, -183.75, -290.9)" filter="url(#Main_Color)">
        <path id="Main_Color-2" data-name="Main Color" d="M100,0H1760a80,80,0,0,1,80,80V276c0,552.285-447.715,1000-1000,1000H100A100,100,0,0,1,0,1176V100A100,100,0,0,1,100,0Z" transform="translate(299 541)" fill="#fff823"/>
      </g>
      <g transform="matrix(1, 0, 0, 1, -183.75, -290.9)" filter="url(#Text)">
        <text id="Text-2" data-name="Text" transform="translate(521 1398)" fill="#212121" font-size="700" font-family="Tahoma-Bold, Tahoma" font-weight="700"><tspan x="0" y="0">PDF</tspan><tspan x="0" y="845"></tspan></text>
      </g>
    </g>
  </g>
</svg>
