/* XPM */
static char * mupdf_icon_bitmap_32_xpm[] = {
"32 32 4 1",
" 	c None",
".	c #FFFFFF",
"+	c #000000",
"@	c #2572AC",
"                                ",
"                    ......      ",
"                  ..++++++..    ",
"                 .++++++++++.   ",
"                .++++@@@@++++.  ",
"               .+++@@@@@@@@+++. ",
"               .++@@@......@++. ",
" .....        .+++@@@.....@@+++.",
" .++++.       .++@@@.....@@@@++.",
" .++++.       .++@@@.....@@@@++.",
" .+++++.      .++@@......@@@@++.",
" .+++++.      .++@@......@@@@++.",
" .++++++.     .+++...@...@@@+++.",
" .++++++.      .++...@...@@@++. ",
" .+++++++.     .+++.@@...@@+++. ",
" .+++++++.      .++++@...++++.  ",
" .++++++++.     ..++++++++++.   ",
" .++++++++.     .+..++++++..    ",
" .++++.++++.   .+++.......      ",
" .++++.++++.   .++++.++++.      ",
" .++++..++++. .++++..+.++.      ",
" .++++..++++. .++++.......      ",
" .++++. .++++.++++. .+.++.      ",
" .++++. .++++.++++. .+.++.      ",
" .++++.  .+++++++.  .+.++.      ",
" .++++.  .+++++++.  .+.++.      ",
" .++++.   .+++++.   .+.++.      ",
" .++++.   .+++++.   .+.++.      ",
" .++++.    .+++.    .+.++.      ",
" .++++.    .+++.    .++++.      ",
" ......     ...     ......      ",
"                                "};
